<?xml version="1.0" encoding="utf-8"?>
<!-- Generator: Adobe Illustrator 23.0.0, SVG Export Plug-In . SVG Version: 6.00 Build 0)  -->
<svg version="1.1" xmlns="http://www.w3.org/2000/svg" xmlns:xlink="http://www.w3.org/1999/xlink" x="0px" y="0px"
	 viewBox="0 0 400 400" style="enable-background:new 0 0 400 400;" xml:space="preserve">
<style type="text/css">
	.st0{fill:#C7E9D1;}
	.st1{fill:#54BE73;}
</style>
<g id="Layer_2">
	<path class="st0" d="M85,221l50.45,18.59c3.94,1.45,6.55,5.2,6.55,9.4V289l-57-23V221z"/>
	<path class="st0" d="M150.52,132.62l13.24,5.42c2.82,1.15,2.97,5.1,0.24,6.46l-15.67,7.83c-0.86,0.43-1.85,0.49-2.75,0.18
		l-13.81-4.8c-2.94-1.02-3.23-5.06-0.47-6.5l16.24-8.44C148.47,132.28,149.56,132.23,150.52,132.62z"/>
	<path class="st0" d="M310,192c-13,67-84,111-84,111l88-35v-76"/>
</g>
<g id="Layer_1">
	<path class="st1" d="M293.65,250.11l-49.31,18.19c-2.46,0.91-3.71,3.63-2.81,6.09c0.71,1.92,2.52,3.1,4.45,3.1
		c0.54,0,1.1-0.09,1.64-0.29l49.31-18.19c2.46-0.91,3.71-3.63,2.81-6.09C298.84,250.46,296.11,249.2,293.65,250.11z"/>
	<path class="st1" d="M230.79,273.31l-2.09,0.77c-2.46,0.91-3.71,3.63-2.81,6.09c0.71,1.92,2.52,3.1,4.45,3.1
		c0.54,0,1.1-0.09,1.64-0.29l2.09-0.77c2.46-0.91,3.71-3.63,2.81-6.09C235.97,273.66,233.25,272.4,230.79,273.31z"/>
	<path class="st1" d="M293.65,230.79l-38.97,14.38c-2.46,0.91-3.71,3.63-2.81,6.09c0.71,1.92,2.52,3.1,4.45,3.1
		c0.54,0,1.1-0.09,1.64-0.29l38.97-14.38c2.46-0.91,3.71-3.63,2.81-6.09C298.84,231.14,296.11,229.88,293.65,230.79z"/>
	<path class="st1" d="M293.65,211.67l-38.97,14.38c-2.46,0.91-3.71,3.63-2.81,6.09c0.71,1.92,2.52,3.1,4.45,3.1
		c0.54,0,1.1-0.09,1.64-0.29l38.97-14.38c2.46-0.91,3.71-3.63,2.81-6.09C298.84,212.02,296.11,210.77,293.65,211.67z"/>
	<path class="st1" d="M315.9,127.73L201.64,85.57c-1.06-0.39-2.22-0.39-3.28,0L84.1,127.73l0,0c-0.37,0.14-0.73,0.32-1.07,0.55
		c-1.27,0.89-2.03,2.34-2.03,3.89v135.64c0,1.99,1.24,3.76,3.1,4.45l114.26,42.16c0.53,0.2,1.09,0.29,1.64,0.29
		c0.56,0,1.11-0.1,1.64-0.3l0,0l114.26-42.16c1.86-0.69,3.1-2.46,3.1-4.45V132.18C319,130.19,317.76,128.42,315.9,127.73z
		 M121.3,150.35l41.72,15.39v50.64l-41.72-15.39V150.35z M167.76,157.35l-37.51-13.84l37.51-13.84l37.51,13.84L167.76,157.35z
		 M200,95.07l100.56,37.11L200,169.28l-18.59-6.86l39.2-14.46c1.86-0.69,3.1-2.46,3.1-4.45s-1.24-3.76-3.1-4.45l-51.2-18.89
		c-1.06-0.39-2.22-0.39-3.28,0l-49.61,18.31l-17.07-6.3L200,95.07z M90.48,138.98l21.33,7.87v57.44c0,1.99,1.24,3.76,3.1,4.45
		l51.2,18.89c0.53,0.2,1.09,0.29,1.64,0.29c0.96,0,1.9-0.29,2.71-0.85c1.27-0.89,2.03-2.34,2.03-3.89v-53.95l22.76,8.4v125.54
		L90.48,264.52V138.98z M204.74,303.18V177.64l104.78-38.66v125.54L204.74,303.18z"/>
	<path class="st1" d="M248.55,337.96c-0.3,0-0.6-0.07-0.87-0.21l-15.8-7.86l7.86-15.8c0.33-0.67,1.01-1.09,1.76-1.09
		c0.3,0,0.6,0.07,0.87,0.21c0.97,0.48,1.36,1.66,0.88,2.63l-4.59,9.23l3.59-1.2l66.43-24.52l-9.22-4.59
		c-0.97-0.48-1.36-1.66-0.88-2.63c0.33-0.67,1.01-1.09,1.76-1.09c0.3,0,0.6,0.07,0.87,0.21l15.8,7.86l-7.86,15.8
		c-0.33,0.67-1.01,1.09-1.76,1.09l0,0c-0.3,0-0.6-0.07-0.87-0.21c-0.97-0.48-1.36-1.66-0.88-2.63l4.94-9.93l-70.89,26.16l9.75,4.85
		c0.97,0.48,1.36,1.66,0.88,2.63C249.97,337.54,249.3,337.96,248.55,337.96z"/>
	<path class="st1" d="M149.1,336.59c-0.85,0-1.59-0.54-1.86-1.34c-0.34-1.02,0.21-2.14,1.24-2.49l11.33-3.8l-67.48-24.9l2.94,8.76
		c0.34,1.02-0.21,2.14-1.24,2.48c-0.2,0.07-0.41,0.1-0.62,0.1c-0.84,0-1.59-0.54-1.86-1.34l-5.61-16.73l16.73-5.61
		c0.2-0.07,0.41-0.1,0.62-0.1c0.84,0,1.59,0.54,1.86,1.34c0.34,1.02-0.21,2.14-1.24,2.48l-11.81,3.96l68.08,25.12l-3.06-9.14
		c-0.07-0.2-0.1-0.41-0.1-0.62c0-0.84,0.54-1.59,1.34-1.86c0.2-0.07,0.41-0.1,0.63-0.1c0.84,0,1.59,0.54,1.86,1.34l5.61,16.74
		l-16.73,5.61C149.52,336.55,149.31,336.59,149.1,336.59z"/>
</g>
</svg>
