<?xml version="1.0" encoding="utf-8"?>
<!-- Generator: Adobe Illustrator 23.0.0, SVG Export Plug-In . SVG Version: 6.00 Build 0)  -->
<svg version="1.1" id="Capa_1" xmlns="http://www.w3.org/2000/svg" xmlns:xlink="http://www.w3.org/1999/xlink" x="0px" y="0px"
	 viewBox="0 0 442.8 442.8" style="enable-background:new 0 0 442.8 442.8;" xml:space="preserve">
<style type="text/css">
	.st0{fill:#FFFFFF;}
</style>
<path class="st0" d="M254.7,221.4L416.5,59.6c9.2-9.2,9.2-24.1,0-33.3s-24.1-9.2-33.3,0L221.4,188.1L59.6,26.3
	c-9.2-9.2-24.1-9.2-33.3,0s-9.2,24.1,0,33.3l161.8,161.8L26.3,383.2c-9.2,9.2-9.2,24.1,0,33.3s24.1,9.2,33.3,0l161.8-161.8
	l161.8,161.8c9.2,9.2,24.1,9.2,33.3,0s9.2-24.1,0-33.3L254.7,221.4z"/>
</svg>
