<?xml version="1.0" encoding="utf-8"?>
<!-- Generator: Adobe Illustrator 22.1.0, SVG Export Plug-In . SVG Version: 6.00 Build 0)  -->
<svg version="1.1" id="Capa_1" xmlns="http://www.w3.org/2000/svg" xmlns:xlink="http://www.w3.org/1999/xlink" x="0px" y="0px"
	 viewBox="0 0 52 52" style="enable-background:new 0 0 52 52;" xml:space="preserve">
<style type="text/css">
	.st0{fill:#FF5565;}
</style>
<g>
	<path class="st0" d="M26,0.9C12.2,0.9,0.9,12.2,0.9,26S12.2,51.1,26,51.1S51.1,39.8,51.1,26S39.8,0.9,26,0.9z M26,48.3
		c-12.3,0-22.3-10-22.3-22.3S13.7,3.7,26,3.7c12.3,0,22.3,10,22.3,22.3S38.3,48.3,26,48.3z"/>
	<path class="st0" d="M35.9,17.5c0-0.4-0.1-0.7-0.4-1c-0.3-0.3-0.6-0.4-1-0.4c-0.4,0-0.7,0.1-1,0.4L26,24.1l-7.6-7.6
		c-0.3-0.3-0.6-0.4-1-0.4c-0.4,0-0.7,0.1-1,0.4c-0.3,0.3-0.4,0.6-0.4,1c0,0.4,0.1,0.7,0.4,1l7.6,7.6l-7.6,7.6
		c-0.3,0.3-0.4,0.6-0.4,1c0,0.4,0.1,0.7,0.4,1c0.3,0.3,0.6,0.4,1,0.4c0.4,0,0.7-0.1,1-0.4l7.6-7.6l7.6,7.6c0.3,0.3,0.6,0.4,1,0.4
		c0.4,0,0.7-0.1,1-0.4c0.3-0.3,0.4-0.6,0.4-1c0-0.4-0.1-0.7-0.4-1L27.9,26l7.6-7.6C35.8,18.2,35.9,17.8,35.9,17.5z"/>
</g>
</svg>
