<?xml version="1.0" encoding="utf-8"?>
<!-- Generator: Adobe Illustrator 23.0.0, SVG Export Plug-In . SVG Version: 6.00 Build 0)  -->
<svg version="1.1" id="Layer_8" xmlns="http://www.w3.org/2000/svg" xmlns:xlink="http://www.w3.org/1999/xlink" x="0px" y="0px"
	 viewBox="0 0 108.53 78.53" style="enable-background:new 0 0 108.53 78.53;" xml:space="preserve">
<style type="text/css">
	.st0{fill:#55BE74;}
	.st1{opacity:0.33;fill:#55BE74;}
</style>
<g>
	<path class="st0" d="M101.26,34.23H91.05L79.98,17.18c-1.06-1.64-2.86-2.61-4.82-2.61H65.3c-2.47,0-4.58,1.57-5.38,3.76
		c-0.24,0.62-0.36,1.28-0.36,1.98v34.62H56.3V10.98c0-1.06-0.86-1.92-1.92-1.92H8.51c-1.05,0-1.91,0.86-1.91,1.92v43.95H3.43
		c-1.06,0-1.92,0.86-1.92,1.92c0,1.05,0.86,1.91,1.92,1.91h12.21c0.93,6.05,6.15,10.7,12.45,10.7c6.3,0,11.52-4.65,12.45-10.7h35.82
		c0.93,6.05,6.15,10.7,12.45,10.7c6.31,0,11.53-4.65,12.46-10.7c3.16,0,5.74-2.58,5.74-5.74V39.97
		C107.01,36.8,104.43,34.23,101.26,34.23z M36.87,56.95c-0.05,4.22-3.1,7.75-7.12,8.52c-0.54,0.11-1.09,0.16-1.66,0.16
		c-4.84,0-8.78-3.94-8.78-8.78c0-1.63,0.44-3.15,1.21-4.45c1.53-2.6,4.35-4.34,7.57-4.34c4.81,0,8.72,3.89,8.78,8.69
		c-0.01,0.03-0.01,0.06-0.01,0.1C36.86,56.88,36.86,56.91,36.87,56.95z M52.47,54.93H40.54c-0.93-6.05-6.15-10.7-12.45-10.7
		c-6.3,0-11.52,4.65-12.45,10.7h-5.21V12.89h42.04V54.93z M75.16,18.4c0.65,0,1.25,0.32,1.61,0.87l9.71,14.96H63.39V20.31
		c0-1.05,0.86-1.91,1.91-1.91H75.16z M90.86,65.38c-0.66,0.17-1.34,0.25-2.05,0.25c-4.84,0-8.78-3.94-8.78-8.78
		c0-1.48,0.36-2.88,1.02-4.1c1.47-2.79,4.4-4.69,7.76-4.69c4.85,0,8.79,3.94,8.79,8.79C97.6,60.98,94.73,64.46,90.86,65.38z
		 M103.18,53.02c0,1.05-0.86,1.91-1.91,1.91c-0.93-6.05-6.15-10.7-12.46-10.7c-6.3,0-11.52,4.65-12.45,10.7H63.39V38.06h37.87
		c1.06,0,1.92,0.86,1.92,1.91V53.02z"/>
	<path class="st0" d="M20.52,40.73c0.23,0.09,0.47,0.14,0.72,0.14c0.25,0,0.51-0.05,0.75-0.15l22.7-9.62
		c0.97-0.41,1.43-1.54,1.02-2.51l-3.99-9.4c-0.2-0.47-0.57-0.84-1.04-1.03c-0.47-0.19-1-0.19-1.47,0.01l-22.7,9.62
		c-0.97,0.41-1.43,1.54-1.02,2.51l3.99,9.4C19.68,40.17,20.05,40.54,20.52,40.73z M38.94,22.44l2.49,5.88l-19.17,8.13l-2.49-5.88
		L38.94,22.44z"/>
	<circle class="st1" cx="25.01" cy="59.02" r="8"/>
	<circle class="st1" cx="86.01" cy="59.02" r="8"/>
	<path class="st1" d="M75.01,34.26h-9.97V23.81c0-0.79,0.65-1.44,1.44-1.44h5.2L75.01,34.26z"/>
</g>
</svg>
