<?xml version="1.0" encoding="utf-8"?>
<!-- Generator: Adobe Illustrator 23.0.0, SVG Export Plug-In . SVG Version: 6.00 Build 0)  -->
<svg version="1.1" id="Layer_5" xmlns="http://www.w3.org/2000/svg" xmlns:xlink="http://www.w3.org/1999/xlink" x="0px" y="0px"
	 viewBox="0 0 108.53 78.53" style="enable-background:new 0 0 108.53 78.53;" xml:space="preserve">
<style type="text/css">
	.st0{fill:#55BE74;}
	.st1{opacity:0.33;fill:#55BE74;}
</style>
<g>
	<path class="st0" d="M34.64,69.77h39.25c3.58,0,6.5-2.92,6.5-6.5V20.36c0-3.58-2.92-6.5-6.5-6.5c-0.83,0-1.5,0.67-1.5,1.5
		c0,0.83,0.67,1.5,1.5,1.5c1.93,0,3.5,1.57,3.5,3.5v42.91c0,1.93-1.57,3.5-3.5,3.5H34.64c-1.93,0-3.5-1.57-3.5-3.5V20.36
		c0-1.93,1.57-3.5,3.5-3.5c0.83,0,1.5-0.67,1.5-1.5c0-0.83-0.67-1.5-1.5-1.5c-3.58,0-6.5,2.92-6.5,6.5v42.91
		C28.14,66.86,31.05,69.77,34.64,69.77z"/>
	<path class="st0" d="M43.95,22.02h20.38c2.48,0,4.5-2.02,4.5-4.5v-4.27c0-2.48-2.02-4.5-4.5-4.5H43.95c-2.48,0-4.5,2.02-4.5,4.5
		v4.27C39.45,20.01,41.47,22.02,43.95,22.02z M42.45,13.25c0-0.83,0.67-1.5,1.5-1.5h20.38c0.83,0,1.5,0.67,1.5,1.5v4.27
		c0,0.83-0.67,1.5-1.5,1.5H43.95c-0.83,0-1.5-0.67-1.5-1.5V13.25z"/>
	<path class="st0" d="M39.3,37.8c0.29,0.29,0.68,0.44,1.06,0.44c0.38,0,0.77-0.15,1.06-0.44l3.77-3.77c0.59-0.59,0.59-1.54,0-2.12
		c-0.59-0.59-1.54-0.59-2.12,0l-2.71,2.71l-1.53-1.53c-0.59-0.59-1.54-0.59-2.12,0c-0.59,0.59-0.59,1.54,0,2.12L39.3,37.8z"/>
	<path class="st0" d="M49.13,31.61c0,0.83,0.67,1.5,1.5,1.5h20.59c0.83,0,1.5-0.67,1.5-1.5s-0.67-1.5-1.5-1.5H50.63
		C49.8,30.11,49.13,30.78,49.13,31.61z"/>
	<path class="st0" d="M71.22,36.11H50.63c-0.83,0-1.5,0.67-1.5,1.5c0,0.83,0.67,1.5,1.5,1.5h20.59c0.83,0,1.5-0.67,1.5-1.5
		C72.72,36.78,72.05,36.11,71.22,36.11z"/>
	<path class="st0" d="M35.8,57.61c0,0.83,0.67,1.5,1.5,1.5h6c0.83,0,1.5-0.67,1.5-1.5v-6c0-0.83-0.67-1.5-1.5-1.5h-6
		c-0.83,0-1.5,0.67-1.5,1.5V57.61z M38.8,53.11h3v3h-3V53.11z"/>
	<path class="st0" d="M71.22,50.11H50.63c-0.83,0-1.5,0.67-1.5,1.5c0,0.83,0.67,1.5,1.5,1.5h20.59c0.83,0,1.5-0.67,1.5-1.5
		C72.72,50.78,72.05,50.11,71.22,50.11z"/>
	<path class="st0" d="M71.22,56.11H50.63c-0.83,0-1.5,0.67-1.5,1.5c0,0.83,0.67,1.5,1.5,1.5h20.59c0.83,0,1.5-0.67,1.5-1.5
		C72.72,56.78,72.05,56.11,71.22,56.11z"/>
	<path class="st1" d="M58.8,67.86H36.47c-3.22,0-5.83-2.61-5.83-5.83V32.69c0-3.22,2.61-5.83,5.83-5.83H58.8
		c3.22,0,5.83,2.61,5.83,5.83v29.33C64.64,65.25,62.03,67.86,58.8,67.86z"/>
	<path class="st1" d="M64.89,19.86h-14.5c-0.97,0-1.75-0.78-1.75-1.75v-1.5c0-0.97,0.78-1.75,1.75-1.75h14.5
		c0.97,0,1.75,0.78,1.75,1.75v1.5C66.64,19.07,65.85,19.86,64.89,19.86z"/>
</g>
</svg>
