<?xml version="1.0" encoding="utf-8"?>
<!-- Generator: Adobe Illustrator 23.0.0, SVG Export Plug-In . SVG Version: 6.00 Build 0)  -->
<svg version="1.1" id="Layer_2" xmlns="http://www.w3.org/2000/svg" xmlns:xlink="http://www.w3.org/1999/xlink" x="0px" y="0px"
	 viewBox="0 0 108.53 78.53" style="enable-background:new 0 0 108.53 78.53;" xml:space="preserve">
<style type="text/css">
	.st0{fill:#55BE74;}
	.st1{opacity:0.33;fill:#55BE74;}
</style>
<g>
	<path class="st0" d="M15.77,59.52h3.47c0.65,2.21,2.68,3.83,5.09,3.83s4.44-1.63,5.09-3.83h40.93c0.83,0,1.5-0.67,1.5-1.5V44.37
		h19.39v10.64c0,0.83-0.67,1.5-1.5,1.5c-0.83,0-1.5,0.67-1.5,1.5c0,0.83,0.67,1.5,1.5,1.5c2.48,0,4.5-2.02,4.5-4.5V43.84
		c0-0.42-0.07-0.84-0.19-1.24c-0.01-0.03-0.02-0.06-0.02-0.09c-0.01-0.04-0.02-0.08-0.03-0.12l-4.15-12.17
		c-0.62-1.82-2.33-3.05-4.26-3.05H73.37c-2.48,0-4.5,2.02-4.5,4.5v24.84H29.43c-0.65-2.21-2.68-3.83-5.09-3.83s-4.44,1.63-5.09,3.83
		h-3.47c-0.83,0-1.5,0.67-1.5,1.5C14.27,58.85,14.94,59.52,15.77,59.52z M71.87,31.67c0-0.83,0.67-1.5,1.5-1.5h12.24
		c0.64,0,1.21,0.41,1.42,1.02l3.47,10.18H71.87V31.67z M24.34,55.68c1.29,0,2.34,1.05,2.34,2.33c0,1.29-1.05,2.33-2.34,2.33
		c-1.29,0-2.33-1.05-2.33-2.33C22,56.73,23.05,55.68,24.34,55.68z"/>
	<path class="st0" d="M74.86,58.02c0,2.94,2.39,5.33,5.33,5.33c2.94,0,5.34-2.39,5.34-5.33c0-2.94-2.39-5.33-5.34-5.33
		C77.25,52.68,74.86,55.07,74.86,58.02z M82.53,58.02c0,1.29-1.05,2.33-2.34,2.33c-1.29,0-2.33-1.05-2.33-2.33
		c0-1.29,1.05-2.33,2.33-2.33C81.48,55.68,82.53,56.73,82.53,58.02z"/>
	<path class="st0" d="M32.08,53.49h30.21c1.95,0,3.54-1.59,3.54-3.54V18.72c0-1.95-1.59-3.54-3.54-3.54H32.08
		c-1.95,0-3.54,1.59-3.54,3.54v31.23C28.54,51.9,30.13,53.49,32.08,53.49z M31.54,18.72c0-0.3,0.24-0.54,0.54-0.54h30.21
		c0.3,0,0.54,0.24,0.54,0.54v31.23c0,0.3-0.24,0.54-0.54,0.54H32.08c-0.3,0-0.54-0.24-0.54-0.54V18.72z"/>
	<path class="st0" d="M15.77,18.17h8.88c0.83,0,1.5-0.67,1.5-1.5c0-0.83-0.67-1.5-1.5-1.5h-8.88c-0.83,0-1.5,0.67-1.5,1.5
		C14.27,17.5,14.94,18.17,15.77,18.17z"/>
	<path class="st0" d="M15.77,24.24h8.88c0.83,0,1.5-0.67,1.5-1.5c0-0.83-0.67-1.5-1.5-1.5h-8.88c-0.83,0-1.5,0.67-1.5,1.5
		C14.27,23.57,14.94,24.24,15.77,24.24z"/>
	<path class="st0" d="M15.77,30.31h8.88c0.83,0,1.5-0.67,1.5-1.5s-0.67-1.5-1.5-1.5h-8.88c-0.83,0-1.5,0.67-1.5,1.5
		S14.94,30.31,15.77,30.31z"/>
	<path class="st0" d="M15.77,36.38h8.88c0.83,0,1.5-0.67,1.5-1.5c0-0.83-0.67-1.5-1.5-1.5h-8.88c-0.83,0-1.5,0.67-1.5,1.5
		C14.27,35.71,14.94,36.38,15.77,36.38z"/>
	<path class="st0" d="M15.77,42.45h8.88c0.83,0,1.5-0.67,1.5-1.5c0-0.83-0.67-1.5-1.5-1.5h-8.88c-0.83,0-1.5,0.67-1.5,1.5
		C14.27,41.78,14.94,42.45,15.77,42.45z"/>
	<path class="st0" d="M15.77,48.52h8.88c0.83,0,1.5-0.67,1.5-1.5c0-0.83-0.67-1.5-1.5-1.5h-8.88c-0.83,0-1.5,0.67-1.5,1.5
		C14.27,47.85,14.94,48.52,15.77,48.52z"/>
	<path class="st1" d="M61.02,51.26h-22.8c-1.96,0-3.56-1.59-3.56-3.56V27.6c0-1.96,1.59-3.56,3.56-3.56h22.8
		c1.96,0,3.56,1.59,3.56,3.56v20.1C64.58,49.67,62.98,51.26,61.02,51.26z"/>
	<path class="st1" d="M87.15,42.26h-5.93c-1.96,0-3.56-1.59-3.56-3.56v-6.1c0-1.96,1.59-3.56,3.56-3.56h5.93
		c1.96,0,3.56,1.59,3.56,3.56v6.1C90.71,40.67,89.12,42.26,87.15,42.26z"/>
</g>
</svg>
