<?xml version="1.0" encoding="utf-8"?>
<!-- Generator: Adobe Illustrator 23.0.0, SVG Export Plug-In . SVG Version: 6.00 Build 0)  -->
<svg version="1.1" id="Calque_2" xmlns="http://www.w3.org/2000/svg" xmlns:xlink="http://www.w3.org/1999/xlink" x="0px" y="0px"
	 viewBox="0 0 108.5 78.5" style="enable-background:new 0 0 108.5 78.5;" xml:space="preserve">
<style type="text/css">
	.st0{fill:#55BE74;}
	.st1{opacity:0.33;fill:#55BE74;enable-background:new    ;}
</style>
<g>
	<g>
		<path class="st0" d="M76.3,22.1c0.1,0.1,0.3,0.1,0.5,0.1c0.1,0.1,0.3,0.1,0.6,0.1s0.3,0.1,0.6,0.1H78v1v0.3h0.3h1h0.3v-0.3v-1.1
			h0.1c0.2-0.1,0.4-0.1,0.6-0.3c0.2-0.1,0.3-0.2,0.6-0.3c0.1-0.1,0.3-0.3,0.4-0.5c0.1-0.1,0.2-0.3,0.3-0.6c0.1-0.2,0.1-0.4,0.2-0.6
			c0.1-0.2,0.1-0.4,0.1-0.7c0-0.2,0-0.3-0.1-0.6c-0.1-0.2-0.1-0.3-0.2-0.6c-0.1-0.1-0.1-0.3-0.3-0.5s-0.2-0.3-0.3-0.4
			c-0.1-0.1-0.3-0.3-0.5-0.3c-0.1-0.1-0.3-0.2-0.5-0.3c-0.2-0.1-0.3-0.2-0.6-0.3c-0.2-0.1-0.4-0.1-0.6-0.2c-0.1,0-0.2-0.1-0.3-0.1
			c-0.1-0.1-0.2-0.1-0.3-0.1c-0.1-0.1-0.2-0.1-0.3-0.1c-0.1-0.1-0.1-0.1-0.2-0.2c-0.1-0.1-0.1-0.1-0.1-0.3c-0.1-0.1-0.1-0.2-0.1-0.3
			c0-0.1,0-0.2,0-0.3c0-0.1,0.1-0.2,0.1-0.3c0.1-0.1,0.1-0.2,0.1-0.3c0.1-0.1,0.1-0.1,0.2-0.2c0.1-0.1,0.2-0.1,0.3-0.1
			c0.1-0.1,0.2-0.1,0.3-0.1c0.1,0,0.1,0,0.2,0c0.1,0,0.1,0,0.2,0c0.1,0,0.2,0,0.3,0.1c0.1,0,0.3,0.1,0.3,0.1c0.1,0,0.2,0.1,0.3,0.1
			c0.1,0,0.2,0.1,0.3,0.1l0.3,0.1l0.1-0.4l0.1-1.1v-0.3l-0.3-0.1c-0.1,0-0.2-0.1-0.3-0.1c-0.1,0-0.1-0.1-0.3-0.1
			c-0.1,0-0.2-0.1-0.3-0.1S79.7,12,79.6,12h-0.1c0-0.4,0-0.9,0-1.3c-0.6,0-1.1,0-1.7,0c0,0.5,0,0.9,0,1.4h-0.1
			c-0.2,0.1-0.4,0.1-0.6,0.3c-0.2,0.1-0.3,0.2-0.5,0.3c-0.1,0.1-0.3,0.3-0.4,0.5c-0.1,0.1-0.2,0.3-0.3,0.6c-0.1,0.2-0.1,0.4-0.2,0.6
			c-0.1,0.2-0.1,0.5-0.1,0.7s0,0.3,0.1,0.6c0.1,0.2,0.1,0.3,0.2,0.6c0.1,0.1,0.2,0.3,0.3,0.5c0.1,0.1,0.2,0.3,0.3,0.4
			c0.1,0.1,0.3,0.3,0.5,0.3c0.1,0.1,0.3,0.2,0.5,0.3c0.2,0.1,0.4,0.2,0.6,0.3c0.2,0.1,0.4,0.1,0.6,0.2c0.1,0,0.2,0.1,0.3,0.1
			c0.1,0.1,0.2,0.1,0.3,0.1c0.1,0.1,0.1,0.1,0.2,0.1c0.1,0.1,0.1,0.1,0.2,0.2c0.1,0.1,0.1,0.1,0.1,0.3c0,0.1,0.1,0.2,0.1,0.3
			s0,0.2,0,0.3c0,0.1-0.1,0.2-0.1,0.3c-0.1,0.1-0.1,0.1-0.2,0.2c-0.1,0.1-0.1,0.1-0.3,0.2c-0.1,0.1-0.2,0.1-0.3,0.1
			c-0.1,0-0.2,0.1-0.3,0.1c-0.1,0-0.1,0-0.3,0c-0.1,0-0.2,0-0.3,0c-0.1,0-0.3,0-0.3,0c-0.1,0-0.3-0.1-0.3-0.1
			c-0.1,0-0.3-0.1-0.4-0.1c-0.1-0.1-0.3-0.1-0.4-0.1c-0.1,0-0.1-0.1-0.2-0.1s-0.1-0.1-0.2-0.1l-0.4-0.2l-0.1,0.5l-0.1,1.3V22
			l0.2,0.1C75.9,22,76.1,22.1,76.3,22.1z"/>
		<path class="st0" d="M78.7,7c-5.8,0-10.3,4.6-10.3,10.4c0,5.7,4.6,10.3,10.3,10.3c5.7,0,10.4-4.6,10.4-10.4
			C89.1,11.5,84.5,7,78.7,7z M78.7,25c-4.3,0-7.7-3.5-7.7-7.7c0-4.2,3.5-7.7,7.7-7.7c4.3,0,7.7,3.5,7.7,7.8C86.5,21.6,83,25,78.7,25
			z"/>
		<path class="st0" d="M30.4,45c0.2,0,0.5-0.1,0.7-0.2l15-10.7l14.5,6c0.1,0.1,0.3,0.1,0.5,0.1c0.3,0,0.6-0.1,0.8-0.3l11.8-9.3
			c0.3-0.2,0.4-0.5,0.5-0.8c0.1-0.4,0-0.8-0.2-1.1c-0.2-0.3-0.6-0.5-1.1-0.5c-0.3,0-0.6,0.1-0.8,0.3l-11.2,8.9l-14.5-6
			c-0.1-0.1-0.3-0.1-0.5-0.1c-0.3,0-0.6,0.1-0.8,0.2L29.6,42.6c-0.6,0.4-0.7,1.2-0.3,1.8C29.5,44.8,29.9,45,30.4,45z"/>
		<path class="st0" d="M91.1,67.2c-0.2-0.3-0.6-0.4-1-0.4h-5V34.7c0-0.7-0.6-1.3-1.3-1.3H73.6c-0.7,0-1.3,0.6-1.3,1.3v32.1H69V45.8
			c0-0.7-0.6-1.3-1.3-1.3H57.3c-0.7,0-1.3,0.6-1.3,1.3v20.9h-3.4V44.2c0-0.7-0.6-1.3-1.3-1.3H41.1c-0.7,0-1.3,0.6-1.3,1.3v22.6h-3.4
			v-16c0-0.7-0.6-1.3-1.3-1.3H24.8c-0.7,0-1.3,0.6-1.3,1.3v16h-5c-0.7,0-1.3,0.6-1.3,1.3s0.6,1.3,1.3,1.3h71.6
			c0.7,0,1.3-0.6,1.3-1.3C91.4,67.7,91.3,67.4,91.1,67.2z M33.7,66.7h-7.6V52h7.6V66.7z M50,66.7h-7.6V45.5H50V66.7z M66.3,66.7
			h-7.6V47.2h7.6V66.7z M82.6,66.7h-7.6V36h7.6V66.7z"/>
	</g>
	<path class="st1" d="M46.2,55.6v10.8c0,0.7-0.8,1.3-1.8,1.3H43c-1,0-1.8-0.6-1.8-1.3V55.6c0-0.7,0.8-1.3,1.8-1.3h1.5
		C45.4,54.2,46.2,54.8,46.2,55.6z"/>
	<path class="st1" d="M62.4,52.4V66c0,0.9-0.8,1.6-1.8,1.6h-1.5c-1,0-1.8-0.7-1.8-1.6V52.4c0-0.9,0.8-1.6,1.8-1.6h1.5
		C61.7,50.7,62.4,51.5,62.4,52.4z"/>
	<path class="st1" d="M78.9,43v22.2c0,1.5-1,2.7-2.2,2.7h-1.9c-1.2,0-2.2-1.2-2.2-2.7V43c0-1.5,1-2.7,2.2-2.7h1.9
		C77.9,40.4,78.9,41.6,78.9,43z"/>
	<path class="st1" d="M28.6,58.4v9.1c0,0.6-0.7,1.1-1.6,1.1h-1.4c-0.9,0-1.6-0.5-1.6-1.1v-9.1c0-0.6,0.7-1.1,1.6-1.1H27
		C27.9,57.3,28.6,57.8,28.6,58.4z"/>
	<path class="st1" d="M86.5,17.3c0,4.2-3.5,7.7-7.7,7.7c-0.7,0-1.3-0.1-1.9-0.2c4.7,0,8.4-3.8,8.4-8.4c0-2-0.7-3.8-1.8-5.2
		C85.3,12.6,86.5,14.8,86.5,17.3z"/>
</g>
</svg>
