<?xml version="1.0" encoding="utf-8"?>
<!-- Generator: Adobe Illustrator 23.0.0, SVG Export Plug-In . SVG Version: 6.00 Build 0)  -->
<svg version="1.1" xmlns="http://www.w3.org/2000/svg" xmlns:xlink="http://www.w3.org/1999/xlink" x="0px" y="0px"
	 viewBox="0 0 108.5 78.5" style="enable-background:new 0 0 108.5 78.5;" xml:space="preserve">
<style type="text/css">
	.st0{opacity:0.33;fill:#55BE74;enable-background:new    ;}
	.st1{fill:#55BE74;}
</style>
<g id="Calque_2">
	<path class="st0" d="M51,15.7h2.6c0.2,0,0.3,0.4,0.3,1v0.9c0,0.6-0.1,1-0.3,1H51c-0.2,0-0.3-0.4-0.3-1v-0.9
		C50.7,16.1,50.8,15.7,51,15.7z"/>
	<path class="st0" d="M56.3,11.9h-6c-1.3,0-2.3-1-2.3-2.3v0c0-1.3,1-2.3,2.3-2.3h6c1.3,0,2.3,1,2.3,2.3v0
		C58.6,10.9,57.6,11.9,56.3,11.9z"/>
	<path class="st0" d="M33.3,30.4c-0.6,1-1.2,2.1-1.6,3.3c-0.8-3-4.3-3.3-4.3-3.3s0.4,0,1.2,0H33.3z"/>
	<path class="st0" d="M30.4,37.8c-0.3,1.2-0.5,2.4-0.5,3.5c-0.4-3.3-2.7-3.5-3.4-3.5H30.4z"/>
	<path class="st0" d="M31.2,50.2l-0.8-0.1l0.1,0.1c-0.2-2.7-5.9-5-5.9-5s1.1,0,1.9,0h3.3C29.9,46.8,30.8,48.6,31.2,50.2z"/>
	<path class="st0" d="M72.4,43.5c0,9.5-7.7,17.1-17.1,17.1c-5.5,0-10.4-2.6-13.6-6.7c2.9,2.3,6.5,3.6,10.5,3.6
		c9.5,0,17.1-7.7,17.1-17.1c0-4-1.3-7.6-3.6-10.5C69.8,33.1,72.4,38,72.4,43.5z"/>
</g>
<g id="Calque_3">
	<g id="XMLID_806_">
		<g id="XMLID_386_">
			<path id="XMLID_389_" class="st1" d="M80.8,41c-0.6-5.9-3.2-11.4-7.4-15.6c-3.6-3.6-7.9-5.9-12.5-6.9v-3.2
				c1.9-0.5,3.3-2.2,3.3-4.2c0-2.4-1.9-4.3-4.3-4.3h-9.1c-2.4,0-4.3,1.9-4.3,4.3c0,2,1.4,3.7,3.3,4.2v3.2c-4.6,1-8.9,3.3-12.5,6.9
				c-0.8,0.8-1.5,1.6-2.2,2.4h-9.1c-0.7,0-1.3,0.6-1.3,1.3c0,0.7,0.6,1.3,1.3,1.3h7.4c-0.6,1-1.2,2.1-1.6,3.3
				c-0.2,0.5-0.4,1.1-0.6,1.6H17.3c-0.7,0-1.3,0.6-1.3,1.3s0.6,1.3,1.3,1.3h13.1c-0.3,1.2-0.5,2.4-0.5,3.5c0,0.4-0.1,0.9-0.1,1.3
				h-5.6c-0.7,0-1.3,0.6-1.3,1.3c0,0.7,0.6,1.3,1.3,1.3h5.7c0.1,1.6,0.3,3.1,0.7,4.7c0,0.1,0,0.1,0,0.2h-8.2c-0.7,0-1.3,0.6-1.3,1.3
				s0.6,1.3,1.3,1.3h9c1.2,3.3,3.2,6.4,5.8,9c4.2,4.2,9.7,6.8,15.6,7.4c0.8,0.1,1.7,0.1,2.5,0.1c4.9,0,9.8-1.4,14-4.1
				c0.6-0.4,0.8-1.2,0.4-1.8c-0.4-0.6-1.2-0.8-1.8-0.4c-9.1,5.9-21.2,4.6-28.9-3c-3.8-3.8-6-8.7-6.6-13.7c-0.1-0.5-0.1-1-0.1-1.5
				C32,38.4,34.2,32,39,27.2c9-9,23.6-9,32.6,0c7.7,7.7,8.9,19.8,3,28.9c-0.4,0.6-0.2,1.4,0.4,1.8c0.6,0.4,1.4,0.2,1.8-0.4
				C79.9,52.6,81.4,46.7,80.8,41z M58.3,18.1c-1.5-0.2-3-0.2-4.5-0.1c-0.6,0-1.1,0.1-1.7,0.2v-2.7h6.1V18.1z M50.7,12.9
				c-0.9,0-1.6-0.6-1.7-1.4c0-0.1,0-0.2,0-0.4c0-1,0.8-1.8,1.8-1.8h9.1c1,0,1.8,0.8,1.8,1.8c0,1-0.8,1.8-1.8,1.8H50.7z"/>
			<path id="XMLID_391_" class="st1" d="M72.5,59.5c-0.3,0-0.7,0.1-0.9,0.4c-0.2,0.2-0.4,0.6-0.4,0.9s0.1,0.7,0.4,0.9
				c0.2,0.2,0.6,0.4,0.9,0.4c0.3,0,0.7-0.1,0.9-0.4c0.2-0.2,0.4-0.6,0.4-0.9s-0.1-0.7-0.4-0.9C73.2,59.6,72.8,59.5,72.5,59.5z"/>
			<path id="XMLID_394_" class="st1" d="M55.3,23.9c-10.8,0-19.7,8.8-19.7,19.7s8.8,19.7,19.7,19.7S75,54.4,75,43.5
				S66.1,23.9,55.3,23.9z M55.3,60.6c-9.4,0-17.1-7.7-17.1-17.1s7.7-17.1,17.1-17.1s17.1,7.7,17.1,17.1S64.7,60.6,55.3,60.6z"/>
			<path id="XMLID_397_" class="st1" d="M63.3,33.7L57,40c-0.5-0.3-1.1-0.4-1.7-0.4c-0.6,0-1.2,0.1-1.7,0.4l-2.8-2.8
				c-0.5-0.5-1.3-0.5-1.8,0c-0.5,0.5-0.5,1.3,0,1.8l2.8,2.8c-0.3,0.5-0.4,1.1-0.4,1.7c0,2.2,1.8,3.9,3.9,3.9s3.9-1.8,3.9-3.9
				c0-0.6-0.1-1.2-0.4-1.7l6.1-6.1l0,0l0.2-0.2c0.5-0.5,0.5-1.3,0-1.8C64.6,33.2,63.8,33.2,63.3,33.7z M55.3,44.9
				c-0.8,0-1.4-0.6-1.4-1.4s0.6-1.4,1.4-1.4s1.4,0.6,1.4,1.4S56.1,44.9,55.3,44.9z"/>
			<path id="XMLID_398_" class="st1" d="M68.9,42.3h-1.2c-0.7,0-1.3,0.6-1.3,1.3s0.6,1.3,1.3,1.3h1.2c0.7,0,1.3-0.6,1.3-1.3
				S69.6,42.3,68.9,42.3z"/>
			<path id="XMLID_399_" class="st1" d="M42.9,42.2h-1.2c-0.7,0-1.3,0.6-1.3,1.3c0,0.7,0.6,1.3,1.3,1.3h1.2c0.7,0,1.3-0.6,1.3-1.3
				C44.2,42.8,43.6,42.2,42.9,42.2z"/>
			<path id="XMLID_400_" class="st1" d="M55.3,32.4c0.7,0,1.3-0.6,1.3-1.3V30c0-0.7-0.6-1.3-1.3-1.3c-0.7,0-1.3,0.6-1.3,1.3v1.2
				C54.1,31.8,54.6,32.4,55.3,32.4z"/>
			<path id="XMLID_424_" class="st1" d="M55.3,54.6c-0.7,0-1.3,0.6-1.3,1.3v1.2c0,0.7,0.6,1.3,1.3,1.3c0.7,0,1.3-0.6,1.3-1.3v-1.2
				C56.6,55.2,56,54.6,55.3,54.6z"/>
			<path id="XMLID_425_" class="st1" d="M17.3,50.1c-0.3,0-0.7,0.1-0.9,0.4C16.1,50.7,16,51,16,51.3c0,0.3,0.1,0.7,0.4,0.9
				c0.2,0.2,0.6,0.4,0.9,0.4s0.7-0.1,0.9-0.4c0.2-0.2,0.4-0.6,0.4-0.9s-0.1-0.7-0.4-0.9C17.9,50.2,17.6,50.1,17.3,50.1z"/>
		</g>
	</g>
</g>
</svg>
