<?xml version="1.0" encoding="utf-8"?>
<!-- Generator: Adobe Illustrator 22.1.0, SVG Export Plug-In . SVG Version: 6.00 Build 0)  -->
<svg version="1.1" id="Layer_4" xmlns="http://www.w3.org/2000/svg" xmlns:xlink="http://www.w3.org/1999/xlink" x="0px" y="0px"
	 viewBox="0 0 100 100" style="enable-background:new 0 0 100 100;" xml:space="preserve">
<style type="text/css">
	.st0{fill-rule:evenodd;clip-rule:evenodd;fill:#54BE73;}
	.st1{fill-rule:evenodd;clip-rule:evenodd;fill:#FFFFFF;}
	.st2{clip-path:url(#SVGID_2_);fill-rule:evenodd;clip-rule:evenodd;fill:#54BE73;}
	.st3{fill-rule:evenodd;clip-rule:evenodd;fill:#1F222B;}
</style>
<g>
	<g>
		<path class="st0" d="M18.4,60.6h63.1l15.3,32.2H3.1L18.4,60.6z M18.4,60.6"/>
		<path class="st1" d="M50,6.5c12,0,21.7,9.7,21.7,21.7c0,3.1-0.7,6-1.8,8.7L50,76.6L30.2,36.9c-1.2-2.7-1.8-5.6-1.8-8.7
			C28.3,16.2,38,6.5,50,6.5L50,6.5z M50,6.5"/>
		<g>
			<defs>
				<rect id="SVGID_1_" x="1.2" y="4.4" width="97.6" height="90.3"/>
			</defs>
			<clipPath id="SVGID_2_">
				<use xlink:href="#SVGID_1_"  style="overflow:visible;"/>
			</clipPath>
			<path class="st2" d="M50,40.1c6.6,0,11.9-5.4,11.9-11.9c0-6.6-5.4-11.9-11.9-11.9s-11.9,5.4-11.9,11.9
				C38.1,34.8,43.4,40.1,50,40.1L50,40.1z M50,40.1"/>
		</g>
		<path class="st3" d="M50,42.5c-7.9,0-14.3-6.4-14.3-14.3S42.1,13.9,50,13.9s14.3,6.4,14.3,14.3S57.9,42.5,50,42.5z M50,18.6
			c-5.3,0-9.5,4.3-9.5,9.5c0,5.3,4.3,9.5,9.5,9.5c5.3,0,9.5-4.3,9.5-9.5C59.5,22.9,55.3,18.6,50,18.6z"/>
	</g>
	<path class="st3" d="M99,91.7L83.7,59.5c-0.4-0.8-1.2-1.4-2.2-1.4H61.9L72,37.9c1.3-3.1,2-6.3,2-9.7C74.1,14.9,63.3,4.1,50,4.1
		c-13.3,0-24.1,10.8-24.1,24.1c0,3.4,0.7,6.6,2,9.7l10.1,20.3H18.4c-0.9,0-1.8,0.5-2.2,1.4L1,91.7c-0.4,0.7-0.3,1.6,0.1,2.3
		c0.4,0.7,1.2,1.1,2,1.1h93.8c0.8,0,1.6-0.4,2-1.1C99.3,93.3,99.4,92.4,99,91.7z M67.7,35.9L50,71.3L32.3,35.9
		c-1.1-2.4-1.6-5-1.6-7.7c0-10.6,8.6-19.3,19.3-19.3s19.3,8.6,19.3,19.3C69.3,30.9,68.7,33.5,67.7,35.9z M40.5,62.9l7.4,14.8
		c0.4,0.8,1.2,1.3,2.1,1.3c0.9,0,1.7-0.5,2.1-1.3l7.4-14.8H80l13,27.4H6.9l13-27.4H40.5z"/>
</g>
</svg>
