<?xml version="1.0" encoding="utf-8"?>
<!-- Generator: Adobe Illustrator 23.0.0, SVG Export Plug-In . SVG Version: 6.00 Build 0)  -->
<svg version="1.1" id="Layer_3" xmlns="http://www.w3.org/2000/svg" xmlns:xlink="http://www.w3.org/1999/xlink" x="0px" y="0px"
	 viewBox="0 0 108.53 78.53" style="enable-background:new 0 0 108.53 78.53;" xml:space="preserve">
<style type="text/css">
	.st0{fill:#55BE74;}
	.st1{opacity:0.33;fill:#55BE74;}
</style>
<g>
	<path class="st0" d="M69.85,10.83c-8.81,0-15.97,7.16-15.97,15.97c0,8.01,11.04,25.97,15.97,25.97c4.92,0,15.97-17.96,15.97-25.97
		C85.82,17.99,78.65,10.83,69.85,10.83z M69.89,49.77c-2.71-0.46-13.01-15.46-13.01-22.97c0-7.15,5.81-12.97,12.97-12.97
		c7.15,0,12.97,5.82,12.97,12.97C82.82,34.31,72.51,49.31,69.89,49.77z"/>
	<path class="st0" d="M63.82,53.2h-6.06c0.39-1.93,0.68-3.99,0.83-6.16c-0.62-0.9-1.2-1.8-1.74-2.68c-0.52-0.84-1.04-1.74-1.55-2.67
		H38.72c0.09-3.12,0.45-5.98,1-8.51H51.5c-0.34-1.02-0.62-2.03-0.83-3H40.52c0.15-0.47,0.3-0.92,0.47-1.36
		c0.33-0.89,0.7-1.71,1.08-2.46c1.52-2.98,3.38-4.68,5.14-4.68c1.11,0,2.26,0.69,3.34,1.94c0.27-1.57,0.72-3.07,1.35-4.49
		c-1.52-0.29-3.09-0.45-4.69-0.45c-5.59,0-10.76,1.88-14.88,5.06c-0.26,0.2-0.51,0.4-0.76,0.62c-5.42,4.47-8.87,11.25-8.87,18.83
		c0,11.93,8.55,21.89,19.86,24.06c1.46,0.29,2.97,0.44,4.51,0.45h0.14c8.96,0,16.81-4.83,21.08-12.03
		C66.8,55.39,65.29,54.48,63.82,53.2z M55.7,44.69c-0.01,0.36-0.02,0.72-0.05,1.08c-0.13,2.7-0.47,5.19-0.96,7.43H39.72
		c-0.55-2.53-0.91-5.39-1-8.51H55.7z M35.06,25.46c0.55-0.38,1.11-0.73,1.69-1.06c1.29-0.72,2.66-1.31,4.1-1.76
		c-0.54,0.75-1.05,1.6-1.53,2.53c-0.31,0.61-0.6,1.26-0.87,1.94c-0.39,0.96-0.74,1.98-1.06,3.07h-7.28
		C31.51,28.36,33.17,26.76,35.06,25.46z M28.18,33.18h8.48c-0.54,2.62-0.87,5.48-0.95,8.51h-9.94
		C25.98,38.64,26.82,35.76,28.18,33.18z M28.18,53.2c-1.36-2.58-2.2-5.46-2.41-8.51h9.94c0.08,3.03,0.41,5.89,0.95,8.51H28.18z
		 M30.11,56.2h7.28c0.88,3.03,2.06,5.6,3.46,7.54C36.52,62.4,32.8,59.72,30.11,56.2z M47.21,64.7c-0.58,0-1.17-0.18-1.75-0.54
		c-1.86-1.11-3.66-3.93-4.94-7.96h13.37C52.21,61.5,49.63,64.7,47.21,64.7z M53.57,63.74c1.4-1.94,2.58-4.51,3.45-7.54h7.28
		C61.62,59.72,57.89,62.4,53.57,63.74z"/>
	<path class="st0" d="M69.85,21.19c-2.83,0-5.12,2.29-5.12,5.12s2.29,5.12,5.12,5.12s5.12-2.29,5.12-5.12S72.68,21.19,69.85,21.19z"
		/>
	<path class="st1" d="M50.83,48.69c0,1.54-0.14,3.05-0.42,4.51c-0.17,1.02-0.42,2.03-0.74,3c-0.91,2.92-2.35,5.61-4.21,7.96
		c-0.87,1.12-1.84,2.16-2.9,3.09C31.25,65.08,22.7,55.12,22.7,43.19c0-7.58,3.45-14.36,8.87-18.83c0.06,0.01,0.12,0.03,0.18,0.04
		c0.87,0.21,1.73,0.47,2.57,0.77c0.25,0.09,0.5,0.18,0.74,0.29c0.68,0.27,1.36,0.57,2.01,0.9c0.47,0.24,0.93,0.49,1.38,0.75
		c0.89,0.52,1.73,1.08,2.54,1.71c0.57,0.42,1.12,0.88,1.65,1.36c1.01,0.92,1.95,1.93,2.79,3c1.98,2.49,3.49,5.37,4.4,8.51
		c0.29,0.97,0.52,1.98,0.68,3c0.06,0.36,0.11,0.72,0.14,1.08C50.77,46.73,50.83,47.7,50.83,48.69z"/>
</g>
</svg>
