<?xml version="1.0" encoding="utf-8"?>
<!-- Generator: Adobe Illustrator 23.0.0, SVG Export Plug-In . SVG Version: 6.00 Build 0)  -->
<svg version="1.1" id="Layer_1" xmlns="http://www.w3.org/2000/svg" xmlns:xlink="http://www.w3.org/1999/xlink" x="0px" y="0px"
	 viewBox="0 0 50 50" style="enable-background:new 0 0 50 50;" xml:space="preserve">
<style type="text/css">
	.st0{fill:#55BE74;}
</style>
<g>
	<path class="st0" d="M19.8,15.5c0.4-0.4,1-0.4,1.4,0c0.4,0.4,0.4,1,0,1.4l-7,7h23.2c0.5,0,1,0.4,1,1c0,0.5-0.4,1-1,1H14.2l7,7
		c0.4,0.4,0.4,1,0,1.4c-0.4,0.4-1,0.4-1.4,0l-8.7-8.7c-0.4-0.4-0.4-1,0-1.4L19.8,15.5z M19.8,15.5"/>
	<path class="st0" d="M25,49.3C11.6,49.3,0.7,38.4,0.7,25S11.6,0.7,25,0.7S49.3,11.6,49.3,25S38.4,49.3,25,49.3z M25,2.7
		C12.7,2.7,2.7,12.7,2.7,25s10,22.3,22.3,22.3s22.3-10,22.3-22.3S37.3,2.7,25,2.7z"/>
</g>
</svg>
