<?xml version="1.0" encoding="utf-8"?>
<!-- Generator: Adobe Illustrator 23.0.0, SVG Export Plug-In . SVG Version: 6.00 Build 0)  -->
<svg version="1.1" xmlns="http://www.w3.org/2000/svg" xmlns:xlink="http://www.w3.org/1999/xlink" x="0px" y="0px"
	 viewBox="0 0 45.4 45.4" style="enable-background:new 0 0 45.4 45.4;" xml:space="preserve">
<style type="text/css">
	.st0{fill:#55BE74;}
	.st1{fill:#FFFFFF;}
</style>
<g id="Calque_3">
</g>
<g id="Capa_1">
	<g>
		<g>
			<g>
				<path class="st0" d="M22.7,1.6c-9.5,0-17.1,7.7-17.1,17.1c0,8.6,10.7,19.9,15.2,24.2c1.1,1.1,2.8,1.1,4,0
					c4.5-4.2,15.1-15.1,15.1-24.3C39.8,9.3,32.1,1.6,22.7,1.6z"/>
				<path class="st1" d="M22.7,1.6c9.5,0,17.1,7.7,17.1,17.1c0,9.2-10.6,20.1-15.1,24.3c-0.6,0.5-1.3,0.8-2,0.8
					c-0.7,0-1.4-0.3-2-0.8C16.2,38.6,5.6,27.3,5.6,18.7C5.6,9.3,13.2,1.6,22.7,1.6 M22.7,0.6c-10,0-18.1,8.1-18.1,18.1
					c0,8.9,10.8,20.4,15.5,25c0.7,0.7,1.7,1.1,2.7,1.1c1,0,1.9-0.4,2.6-1c4.6-4.3,15.4-15.4,15.4-25C40.8,8.7,32.7,0.6,22.7,0.6
					L22.7,0.6z"/>
			</g>
		</g>
	</g>
</g>
<g id="Calque_2">
	<g>
		<path id="Tracé_12" class="st1" d="M12.7,24.6h20c0.2,0,0.4-0.2,0.4-0.4V13.7c0-0.2-0.2-0.4-0.4-0.4h-20c-0.2,0-0.4,0.2-0.4,0.4
			v10.4C12.3,24.4,12.4,24.6,12.7,24.6C12.7,24.6,12.7,24.6,12.7,24.6z M23.2,14.3h8.9v9.2h-8.9V14.3z M13.3,14.3h8.9v9.2h-8.9V14.3
			z"/>
		<rect id="Rectangle_2" x="14.7" y="16.6" class="st1" width="2.8" height="1"/>
		<rect id="Rectangle_3" x="14.7" y="18.5" class="st1" width="6" height="1"/>
		<rect id="Rectangle_4" x="14.7" y="20.5" class="st1" width="1.5" height="1"/>
		<rect id="Rectangle_5" x="16.7" y="20.5" class="st1" width="3.9" height="1"/>
		<rect id="Rectangle_6" x="18.4" y="16.6" class="st1" width="2.2" height="1"/>
		<rect id="Rectangle_7" x="24.7" y="16.6" class="st1" width="3.4" height="1"/>
		<rect id="Rectangle_8" x="24.7" y="18.5" class="st1" width="6" height="1"/>
		<rect id="Rectangle_9" x="24.7" y="20.5" class="st1" width="1.5" height="1"/>
		<rect id="Rectangle_10" x="26.7" y="20.5" class="st1" width="3.9" height="1"/>
		<rect id="Rectangle_11" x="28.8" y="16.6" class="st1" width="1.8" height="1"/>
	</g>
</g>
</svg>
