<?xml version="1.0" encoding="utf-8"?>
<!-- Generator: Adobe Illustrator 23.0.0, SVG Export Plug-In . SVG Version: 6.00 Build 0)  -->
<svg version="1.1" id="Layer_7" xmlns="http://www.w3.org/2000/svg" xmlns:xlink="http://www.w3.org/1999/xlink" x="0px" y="0px"
	 viewBox="0 0 108.53 78.53" style="enable-background:new 0 0 108.53 78.53;" xml:space="preserve">
<style type="text/css">
	.st0{fill:#55BE74;}
	.st1{opacity:0.33;fill:#55BE74;}
</style>
<g>
	<g>
		<path class="st0" d="M54.26,8.76c-17.47,0-31.55,14.76-30.44,32.47C24.78,56.4,37.12,68.75,52.3,69.7
			C70,70.82,84.76,56.73,84.76,39.26C84.76,22.45,71.08,8.76,54.26,8.76z M54.26,66.47c-7.47,0-14.25-3.03-19.17-7.92
			c-1.97-1.96-3.63-4.21-4.93-6.69c-2.18-4.15-3.32-8.92-3.07-13.98c0.72-14.28,12.72-25.74,27.02-25.82
			c7.18-0.04,13.72,2.72,18.6,7.24c2.52,2.32,4.59,5.12,6.09,8.24c1.71,3.55,2.66,7.53,2.66,11.72
			C81.46,54.26,69.26,66.47,54.26,66.47z"/>
		<path class="st0" d="M43.84,32.34c1.39,0,2.58,0.84,3.02,2.09c0.24,0.67,0.85,1.12,1.56,1.12h0c1.12,0,1.94-1.1,1.58-2.16
			c-0.88-2.59-3.31-4.35-6.16-4.35c-2.85,0-5.28,1.77-6.16,4.35c-0.36,1.06,0.46,2.16,1.58,2.16l0,0c0.71,0,1.32-0.45,1.56-1.12
			C41.26,33.18,42.45,32.34,43.84,32.34L43.84,32.34z M43.84,32.34"/>
		<path class="st0" d="M64.69,32.34c1.39,0,2.58,0.84,3.02,2.09c0.24,0.67,0.85,1.12,1.56,1.12h0c1.12,0,1.94-1.1,1.58-2.16
			c-0.88-2.59-3.31-4.35-6.16-4.35c-2.85,0-5.28,1.77-6.16,4.35c-0.36,1.06,0.46,2.16,1.58,2.16h0c0.71,0,1.32-0.45,1.56-1.12
			C62.11,33.18,63.3,32.34,64.69,32.34L64.69,32.34z M64.69,32.34"/>
		<path class="st0" d="M54.21,56.16c5.78,0,11.35-2.68,14.95-7.22c0.6-0.76,0.4-1.88-0.41-2.4l0,0c-0.71-0.46-1.65-0.3-2.18,0.37
			c-3.34,4.2-8.72,6.48-14.11,5.86c-4.09-0.47-7.91-2.63-10.48-5.86c-0.53-0.66-1.47-0.83-2.18-0.37l0,0
			c-0.81,0.52-1.01,1.64-0.41,2.4c3.1,3.91,7.73,6.53,12.7,7.1C52.78,56.12,53.49,56.16,54.21,56.16L54.21,56.16z M54.21,56.16"/>
	</g>
	<path class="st1" d="M81.46,39.26c0,15-12.2,27.21-27.2,27.21c-0.67,0-1.34-0.02-1.99-0.08c14.06-1.03,25.19-12.81,25.19-27.13
		c0-4.19-0.95-8.17-2.66-11.72c-1.5-3.12-3.57-5.92-6.09-8.24c-4.39-4.06-10.11-6.7-16.44-7.16c0.61-0.05,1.22-0.08,1.84-0.08
		c7.18-0.04,13.72,2.72,18.6,7.24c2.52,2.32,4.59,5.12,6.09,8.24C80.51,31.09,81.46,35.07,81.46,39.26z"/>
</g>
</svg>
