<?xml version="1.0" encoding="utf-8"?>
<!-- Generator: Adobe Illustrator 22.1.0, SVG Export Plug-In . SVG Version: 6.00 Build 0)  -->
<svg version="1.1" xmlns="http://www.w3.org/2000/svg" xmlns:xlink="http://www.w3.org/1999/xlink" x="0px" y="0px"
	 viewBox="0 0 100 100" style="enable-background:new 0 0 100 100;" xml:space="preserve">
<style type="text/css">
	.st0{display:none;}
	.st1{display:inline;}
	.st2{fill:#54BE73;}
	.st3{fill:#1F222B;}
	.st4{display:inline;fill:#1F222B;}
</style>
<g id="Layer_3" class="st0">
	<g class="st1">
		<polygon class="st2" points="23.1,20.3 23.1,89.5 76.9,89.5 76.9,20.3 61.5,20.3 61.5,26.1 38.5,26.1 38.5,20.3 		"/>
	</g>
	<path class="st3" d="M23.1,92c-1.4,0-2.6-1.2-2.6-2.6V20.2c0-1.4,1.2-2.6,2.6-2.6h12.8v-3.3c0-1.4,1.2-2.6,2.6-2.6h3.2v-1.3
		c0-1.4,1.2-2.6,2.6-2.6h11.5c0.7,0,1.3,0.3,1.8,0.8c0.5,0.5,0.8,1.1,0.8,1.8v1.2h3.2c1.4,0,2.6,1.2,2.6,2.6v3.3h12.8
		c1.4,0,2.6,1.2,2.6,2.6v69.2c0,1.4-1.2,2.6-2.6,2.6H23.1z M74.3,86.9v-64H64.1v3.2c0,1.4-1.2,2.6-2.6,2.6H38.5
		c-1.4,0-2.6-1.2-2.6-2.6v-3.2H25.7v64H74.3z M59,23.5V17H41.1l0,6.5H59z"/>
	<path class="st4" d="M23.1,91c-0.9,0-1.6-0.7-1.6-1.6V20.2c0-0.9,0.7-1.6,1.6-1.6h13.8v-4.3c0-0.9,0.7-1.6,1.6-1.6h4.2v-2.3
		c0-0.9,0.7-1.6,1.6-1.6h11.5c0.4,0,0.8,0.2,1.1,0.5c0.3,0.3,0.5,0.7,0.5,1.1v2.2h4.2c0.9,0,1.6,0.7,1.6,1.6v4.3h13.8
		c0.9,0,1.6,0.7,1.6,1.6v69.2c0,0.9-0.7,1.6-1.6,1.6H23.1z M24.7,87.9h50.6v-66H63.1v4.2c0,0.9-0.7,1.6-1.6,1.6H38.5
		c-0.9,0-1.6-0.7-1.6-1.6v-4.2H24.7V87.9z M40.1,24.5H60V16H40.1L40.1,24.5z"/>
	<path class="st3" d="M36.5,42.5c-1.4,0-2.6-1.2-2.6-2.6s1.2-2.6,2.6-2.6h27.1c1.4,0,2.6,1.2,2.6,2.6s-1.2,2.6-2.6,2.6H36.5z"/>
	<path class="st4" d="M36.5,41.5c-0.9,0-1.6-0.7-1.6-1.6s0.7-1.6,1.6-1.6h27.1c0.9,0,1.6,0.7,1.6,1.6s-0.7,1.6-1.6,1.6H36.5z"/>
	<path class="st3" d="M36.5,54.3c-1.4,0-2.6-1.2-2.6-2.6c0-1.4,1.2-2.6,2.6-2.6h27.1c1.4,0,2.6,1.2,2.6,2.6c0,1.4-1.2,2.6-2.6,2.6
		H36.5z"/>
	<path class="st4" d="M36.5,53.3c-0.9,0-1.6-0.7-1.6-1.6s0.7-1.6,1.6-1.6h27.1c0.9,0,1.6,0.7,1.6,1.6s-0.7,1.6-1.6,1.6H36.5z"/>
	<path class="st3" d="M36.5,66.2c-1.4,0-2.6-1.2-2.6-2.6c0-1.4,1.2-2.6,2.6-2.6h27.1c1.4,0,2.6,1.2,2.6,2.6c0,1.4-1.2,2.6-2.6,2.6
		H36.5z"/>
	<path class="st4" d="M36.5,65.2c-0.9,0-1.6-0.7-1.6-1.6c0-0.9,0.7-1.6,1.6-1.6h27.1c0.9,0,1.6,0.7,1.6,1.6c0,0.9-0.7,1.6-1.6,1.6
		H36.5z"/>
	<path class="st3" d="M53.8,78c-1.4,0-2.6-1.2-2.6-2.6s1.2-2.6,2.6-2.6h9.8c1.4,0,2.6,1.2,2.6,2.6S65,78,63.5,78H53.8z"/>
	<path class="st4" d="M53.8,77c-0.9,0-1.6-0.7-1.6-1.6s0.7-1.6,1.6-1.6h9.8c0.9,0,1.6,0.7,1.6,1.6S64.4,77,63.5,77H53.8z"/>
</g>
<g id="Layer_3_copy">
	<g>
		<polygon class="st2" points="18,14.6 18,96.9 82,96.9 82,14.6 63.7,14.6 63.7,21.5 36.3,21.5 36.3,14.6 		"/>
	</g>
	<g>
		<path class="st3" d="M82,12.2H66.1V7.6c0-1.3-1.1-2.4-2.4-2.4h-4.5V3.1c0-0.6-0.2-1.2-0.7-1.7c-0.5-0.5-1-0.7-1.7-0.7H43.2
			c-1.3,0-2.4,1.1-2.4,2.4v2.2h-4.5c-1.3,0-2.4,1.1-2.4,2.4v4.6H18c-1.3,0-2.4,1.1-2.4,2.4v82.3c0,1.3,1.1,2.4,2.4,2.4h64
			c1.3,0,2.4-1.1,2.4-2.4V14.6C84.4,13.3,83.3,12.2,82,12.2z M38.7,10h22.6v9.1H38.7L38.7,10z M36.3,23.9h27.4
			c1.3,0,2.4-1.1,2.4-2.4V17h13.5v77.5H20.4V17h13.5v4.5C33.9,22.9,35,23.9,36.3,23.9z"/>
		<path class="st3" d="M31.5,38c0,1.3,1.1,2.4,2.4,2.4h32.2c1.3,0,2.4-1.1,2.4-2.4c0-1.3-1.1-2.4-2.4-2.4H33.9
			C32.6,35.6,31.5,36.7,31.5,38z"/>
		<path class="st3" d="M66.1,49.7H33.9c-1.3,0-2.4,1.1-2.4,2.4c0,1.3,1.1,2.4,2.4,2.4h32.2c1.3,0,2.4-1.1,2.4-2.4
			C68.5,50.8,67.4,49.7,66.1,49.7z"/>
		<path class="st3" d="M66.1,63.8H33.9c-1.3,0-2.4,1.1-2.4,2.4c0,1.3,1.1,2.4,2.4,2.4h32.2c1.3,0,2.4-1.1,2.4-2.4
			C68.5,64.9,67.4,63.8,66.1,63.8z"/>
		<path class="st3" d="M66.1,77.9H54.5c-1.3,0-2.4,1.1-2.4,2.4s1.1,2.4,2.4,2.4h11.6c1.3,0,2.4-1.1,2.4-2.4S67.4,77.9,66.1,77.9z"/>
	</g>
</g>
</svg>
