<?xml version="1.0" encoding="utf-8"?>
<!-- Generator: Adobe Illustrator 23.0.0, SVG Export Plug-In . SVG Version: 6.00 Build 0)  -->
<svg version="1.1" id="Layer_1" xmlns="http://www.w3.org/2000/svg" xmlns:xlink="http://www.w3.org/1999/xlink" x="0px" y="0px"
	 viewBox="0 0 108.53 78.53" style="enable-background:new 0 0 108.53 78.53;" xml:space="preserve">
<style type="text/css">
	.st0{opacity:0.33;fill:#55BE74;}
	.st1{fill:#55BE74;}
</style>
<g>
	<path class="st0" d="M83.1,44.37l-20.91,9.09c-1.8,0.78-3.9-0.04-4.68-1.84l-6.56-15.09c-0.78-1.8,0.04-3.9,1.84-4.68l20.91-9.09
		c1.8-0.78,3.9,0.04,4.68,1.84l6.56,15.09C85.72,41.5,84.9,43.59,83.1,44.37z"/>
	<path class="st0" d="M55.1,17.37l-5.55,2.41c-1.8,0.78-3.9-0.04-4.68-1.84l-1.3-2.99c-0.78-1.8,0.04-3.9,1.84-4.68l5.55-2.41
		c1.8-0.78,3.9,0.04,4.68,1.84l1.3,2.99C57.72,14.5,56.9,16.59,55.1,17.37z"/>
	<path class="st1" d="M56.1,55.4c-2.89-1.12-6.03-1.04-8.86,0.21c-2.83,1.25-5.01,3.53-6.12,6.41c-1.12,2.89-1.04,6.03,0.21,8.86
		c1.25,2.83,3.53,5,6.41,6.12c1.36,0.53,2.77,0.79,4.19,0.79c1.59,0,3.18-0.33,4.68-0.99c5.84-2.58,8.5-9.43,5.92-15.28
		C61.27,58.69,58.99,56.52,56.1,55.4z M55.39,74.06c-2.1,0.93-4.43,0.98-6.57,0.15c-2.14-0.83-3.83-2.44-4.75-4.54
		c-1.91-4.33,0.05-9.41,4.38-11.32c1.11-0.49,2.29-0.74,3.47-0.74c1.05,0,2.1,0.19,3.1,0.58c2.14,0.83,3.83,2.44,4.75,4.54
		C61.68,67.07,59.72,72.14,55.39,74.06z"/>
	<path class="st1" d="M95.26,45.42L67.59,57.64c-0.76,0.33-1.1,1.22-0.77,1.98c0.25,0.56,0.8,0.89,1.37,0.89
		c0.2,0,0.41-0.04,0.6-0.13l27.67-12.22c0.76-0.33,1.1-1.22,0.77-1.98C96.9,45.43,96.02,45.09,95.26,45.42z"/>
	<path class="st1" d="M45.33,52.78c0.2,0,0.41-0.04,0.6-0.13c0.76-0.33,1.1-1.22,0.77-1.98L26.35,4.6c0,0,0,0,0-0.01l-0.01-0.02
		c-0.01-0.03-0.03-0.05-0.04-0.08c-0.03-0.06-0.06-0.12-0.1-0.17c-0.03-0.04-0.06-0.07-0.09-0.11c-0.03-0.04-0.06-0.08-0.1-0.11
		c-0.03-0.03-0.07-0.06-0.11-0.09c-0.04-0.03-0.07-0.06-0.12-0.09c-0.04-0.02-0.08-0.04-0.12-0.06c-0.05-0.02-0.09-0.05-0.14-0.07
		c-0.04-0.02-0.09-0.03-0.13-0.04c-0.05-0.01-0.09-0.03-0.14-0.04c-0.06-0.01-0.12-0.01-0.18-0.02c-0.03,0-0.07-0.01-0.1-0.01h-0.02
		c0,0,0,0,0,0H12.66c-0.83,0-1.5,0.67-1.5,1.5s0.67,1.5,1.5,1.5h11.33l19.97,45.21C44.2,52.45,44.75,52.78,45.33,52.78z"/>
	<path class="st1" d="M87.8,42.68c0.43-1.12,0.41-2.34-0.08-3.44l-9.48-21.46c-0.49-1.1-1.37-1.94-2.49-2.38
		c-1.12-0.43-2.34-0.41-3.44,0.08L46.46,26.88c-1.1,0.49-1.94,1.37-2.38,2.49c-0.43,1.12-0.41,2.34,0.08,3.44l7.44,16.83
		c0.33,0.76,1.22,1.1,1.98,0.77c0.76-0.33,1.1-1.22,0.77-1.98l-7.44-16.83c-0.16-0.37-0.17-0.77-0.03-1.15
		c0.14-0.37,0.43-0.67,0.79-0.83l9.12-4.03l3.25,7.35c0.15,0.34,0.6,0.4,0.84,0.12l0.83-0.97c0.1-0.12,0.24-0.18,0.4-0.18l1.82,0.06
		c0.15,0,0.3-0.06,0.4-0.18l1.19-1.39c0.1-0.12,0.24-0.18,0.4-0.18l1.27,0.04c0.37,0.01,0.62-0.36,0.47-0.7l-3.25-7.35l9.12-4.03
		c0.37-0.16,0.77-0.17,1.15-0.03c0.37,0.15,0.67,0.43,0.83,0.79l9.48,21.46c0.16,0.37,0.17,0.77,0.03,1.15
		c-0.14,0.37-0.43,0.67-0.79,0.83l-21.53,9.51c-0.76,0.33-1.1,1.22-0.77,1.98c0.25,0.56,0.8,0.89,1.37,0.89
		c0.2,0,0.41-0.04,0.6-0.13l21.53-9.51C86.52,44.68,87.36,43.8,87.8,42.68z"/>
	<path class="st1" d="M51.63,1.12c-1.44-0.56-3.01-0.52-4.42,0.1l-9.53,4.21c-1.41,0.62-2.5,1.76-3.06,3.2
		c-0.56,1.44-0.52,3.01,0.1,4.42l3.14,7.11c0.62,1.41,1.76,2.5,3.2,3.06c0.68,0.26,1.38,0.39,2.09,0.39c0.79,0,1.59-0.17,2.33-0.5
		l9.53-4.21c1.41-0.62,2.5-1.76,3.06-3.2c0.56-1.44,0.52-3.01-0.1-4.42l-3.14-7.11C54.2,2.77,53.07,1.68,51.63,1.12z M55.27,14.63
		c-0.27,0.69-0.79,1.24-1.47,1.54l-9.53,4.21c-0.68,0.3-1.44,0.32-2.13,0.05c-0.69-0.27-1.24-0.79-1.54-1.47l-3.14-7.11
		c-0.3-0.68-0.32-1.44-0.05-2.13c0.27-0.69,0.79-1.24,1.47-1.54l2.66-1.17l1.53,3.46c0.08,0.19,0.33,0.22,0.46,0.07L43.99,10
		c0.05-0.06,0.14-0.1,0.22-0.1l1.01,0.03c0.08,0,0.17-0.03,0.22-0.1l0.66-0.77c0.05-0.06,0.14-0.1,0.22-0.1L47.03,9
		c0.2,0.01,0.35-0.2,0.26-0.39l-1.53-3.46l2.66-1.17c0.36-0.16,0.74-0.24,1.12-0.24c0.34,0,0.68,0.06,1.01,0.19
		c0.69,0.27,1.24,0.79,1.54,1.47l3.14,7.11C55.52,13.18,55.54,13.93,55.27,14.63z"/>
</g>
</svg>
