<?xml version="1.0" encoding="utf-8"?>
<!-- Generator: Adobe Illustrator 23.0.1, SVG Export Plug-In . SVG Version: 6.00 Build 0)  -->
<svg version="1.1" id="Layer_1" xmlns="http://www.w3.org/2000/svg" xmlns:xlink="http://www.w3.org/1999/xlink" x="0px" y="0px"
	 viewBox="0 0 100 55" style="enable-background:new 0 0 100 55;" xml:space="preserve">
<style type="text/css">
	.st0{fill:#96BFB5;}
	.st1{fill:#007660;}
</style>
<path class="st0" d="M69.3,16.3c-0.3,0.4-0.4,0.7-0.6,0.9c-2.1,2.6-4.1,5.2-6.2,7.7c-0.3,0.4-0.5,0.4-0.8,0
	c-2.1-2.6-4.3-5.2-6.3-7.9c-3.6-4.8-0.7-11.9,5.3-13c4.4-0.8,8.9,2.3,9.5,6.8c0.1,0.9,0,1.8,0.1,2.7c0,0.2-0.1,0.3-0.3,0.3
	c-0.6,0-1.2,0-1.9,0c-0.2,0-0.3-0.1-0.3-0.3c0-0.3,0-0.7,0-1c0-0.2,0.1-0.3,0.3-0.3c0.2,0,0.3,0,0.5,0c0-0.7-0.1-1.4-0.3-2.1
	c-1-2.9-3.9-4.8-6.8-4.5c-3.2,0.3-5.6,2.6-6,5.7c-0.2,1.8,0.2,3.4,1.3,4.8c1.7,2.2,3.5,4.4,5.2,6.6c0.1-0.1,0.2-0.2,0.3-0.3
	c1.6-2,3.2-4,4.8-6c0.2-0.2,0.3-0.3,0.6-0.3C68.1,16.3,68.7,16.3,69.3,16.3"/>
<path class="st1" d="M60.9,9.1h1.8v1.6v1.6H64v1.6c-1,0-1.9,0-2.9,0c-0.2,0-0.2-0.2-0.2-0.3c0-1.2,0-2.3,0-3.5
	C60.9,9.7,60.9,9.4,60.9,9.1"/>
<path class="st1" d="M65.8,12.3v1.5c-0.5,0-1,0-1.4,0c-0.1,0-0.2-0.1-0.2-0.2c0-0.4,0-0.9,0-1.4H65.8z"/>
<rect x="66.1" y="12.3" class="st1" width="1.6" height="1.5"/>
<polygon class="st1" points="18,42.7 4.8,42.7 4.8,19.5 9.5,19.5 9.5,38.5 18,38.5 "/>
<path class="st1" d="M21.5,27.6c1.2-1.6,3.2-2.3,6.1-2.3c2.8,0,4.8,0.8,6.1,2.3c1.2,1.6,1.8,3.8,1.8,6.6c0,6-2.6,9-7.9,9
	c-5.2,0-7.9-3-7.9-9C19.6,31.3,20.2,29.1,21.5,27.6 M25,38c0.5,0.8,1.3,1.2,2.5,1.2s2-0.4,2.5-1.2c0.5-0.8,0.7-2.1,0.7-3.9
	c0-1.8-0.2-3-0.7-3.8c-0.5-0.8-1.3-1.2-2.5-1.2s-2,0.4-2.5,1.2c-0.5,0.8-0.7,2.1-0.7,3.8C24.3,35.9,24.5,37.2,25,38"/>
<path class="st1" d="M54.2,44.9c0,1.9-0.8,3.4-2.3,4.3c-1.5,0.9-3.5,1.4-6.1,1.4c-2.6,0-4.5-0.3-5.9-1c-1.4-0.7-2.1-1.9-2.1-3.7
	c0-1.4,0.8-2.8,2.5-4.1c-0.8-0.6-1.3-1.4-1.3-2.6c0-0.5,0.3-1.2,1-2.3l0.3-0.5c-1.6-1.1-2.3-2.8-2.3-4.9c0-2.2,0.7-3.8,2-4.7
	c1.3-1,3-1.5,5.2-1.5c1,0,1.9,0.1,2.9,0.3l0.5,0.1l5.5-0.2v3.7L51.6,29c0.5,0.8,0.8,1.6,0.8,2.3c0,2.3-0.6,3.9-1.7,4.7
	c-1.2,0.9-3,1.3-5.5,1.3c-0.5,0-1,0-1.4-0.1c-0.2,0.6-0.3,1.1-0.3,1.5c0,0.4,0.2,0.6,0.6,0.8c0.4,0.1,1.3,0.2,2.7,0.2
	c2.9,0,4.8,0.4,5.9,1.1C53.7,41.6,54.2,42.9,54.2,44.9 M42.4,45.3c0,1,1.2,1.5,3.6,1.5c2.4,0,3.6-0.6,3.6-1.7c0-0.6-0.2-1-0.6-1.2
	c-0.4-0.2-1.3-0.3-2.6-0.3l-3.1-0.2C42.7,44,42.4,44.7,42.4,45.3 M42.6,31.3c0,1.7,0.9,2.5,2.6,2.5c1.7,0,2.6-0.8,2.6-2.5
	c0-1.7-0.9-2.5-2.6-2.5C43.5,28.8,42.6,29.7,42.6,31.3"/>
<path class="st0" d="M5.6,47.2c0,0.1,0.1,0.2,0.2,0.2h0.8l0,0.1c-0.3,0-0.6,0-0.8,0c-0.2,0-0.3-0.1-0.3-0.3v-1.8h0.1V47.2z"/>
<path class="st0" d="M8.2,46.9c0,0.6-0.2,0.8-0.6,0.8c-0.5,0-0.6-0.2-0.6-0.8c0-0.6,0.2-0.8,0.6-0.8C8.1,46.1,8.2,46.3,8.2,46.9
	 M7.1,46.9c0,0.5,0.1,0.7,0.5,0.7c0.4,0,0.5-0.2,0.5-0.7c0-0.5-0.1-0.7-0.5-0.7C7.2,46.2,7.1,46.4,7.1,46.9"/>
<path class="st0" d="M9.7,46.2c0.1,0.1,0.1,0.2,0.1,0.3c0,0.3-0.2,0.5-0.6,0.5c-0.2,0-0.3,0-0.4-0.1c-0.1,0.1-0.1,0.3,0.1,0.4
	l0.6,0.1c0.3,0,0.3,0.2,0.3,0.4c0,0.3-0.2,0.4-0.7,0.4c-0.5,0-0.7-0.1-0.7-0.4c0-0.2,0-0.3,0.2-0.4l0,0c-0.2-0.1-0.2-0.3,0-0.5
	c-0.1-0.1-0.2-0.2-0.2-0.4c0-0.3,0.2-0.5,0.6-0.5c0.1,0,0.2,0,0.3,0H10l0,0.1L9.7,46.2z M9.5,47.5L9,47.4h0l-0.1,0
	c-0.1,0.1-0.2,0.2-0.2,0.4c0,0.2,0.1,0.3,0.6,0.3c0.4,0,0.5-0.1,0.5-0.3C9.8,47.6,9.8,47.5,9.5,47.5 M9.7,46.5
	c0-0.2-0.1-0.4-0.5-0.4c-0.4,0-0.5,0.1-0.5,0.4c0,0.2,0.1,0.4,0.5,0.4C9.6,46.9,9.7,46.8,9.7,46.5"/>
<path class="st0" d="M10.5,45.5C10.5,45.5,10.5,45.5,10.5,45.5l0,0.2c0,0,0,0,0,0h-0.1c0,0,0,0,0,0v-0.2
	C10.4,45.5,10.4,45.5,10.5,45.5L10.5,45.5z M10.4,46.1h0.1v1.5h-0.1V46.1z"/>
<path class="st0" d="M12.1,46.1L12.1,46.1c-0.2,0.1-0.4,0.1-0.6,0.1c-0.3,0-0.4,0-0.4,0.3c0,0.2,0.1,0.3,0.2,0.3l0.5,0.1
	c0.2,0,0.3,0.1,0.3,0.4c0,0.4-0.2,0.4-0.6,0.4c-0.1,0-0.3,0-0.5,0l0-0.1c0.2,0,0.3,0,0.5,0c0.4,0,0.5,0,0.5-0.3
	c0-0.2-0.1-0.3-0.3-0.3l-0.5-0.1c-0.2,0-0.3-0.1-0.3-0.4c0-0.4,0.2-0.4,0.5-0.4C11.7,46.1,11.9,46.1,12.1,46.1"/>
<path class="st0" d="M12.8,47.3c0,0.2,0.1,0.2,0.2,0.2h0.3l0,0.1c-0.1,0-0.2,0-0.3,0c-0.2,0-0.3-0.1-0.3-0.3v-1h-0.3v-0.1l0.3,0
	v-0.5h0.1v0.5h0.5v0.1h-0.5V47.3z"/>
<path class="st0" d="M13.7,45.5C13.8,45.5,13.8,45.5,13.7,45.5l0,0.2c0,0,0,0,0,0h-0.1c0,0,0,0,0,0v-0.2
	C13.6,45.5,13.7,45.5,13.7,45.5L13.7,45.5z M13.7,46.1h0.1v1.5h-0.1V46.1z"/>
<path class="st0" d="M15.4,46.1L15.4,46.1c-0.1,0.1-0.3,0.1-0.4,0.1c-0.4,0-0.6,0.1-0.6,0.7c0,0.5,0.2,0.7,0.6,0.7
	c0.1,0,0.3,0,0.4,0l0,0.1c-0.1,0-0.3,0.1-0.5,0.1c-0.5,0-0.7-0.2-0.7-0.8s0.2-0.8,0.7-0.8C15,46.1,15.2,46.1,15.4,46.1"/>
<path class="st0" d="M16.8,46.1L16.8,46.1c-0.2,0.1-0.4,0.1-0.6,0.1c-0.3,0-0.4,0-0.4,0.3c0,0.2,0.1,0.3,0.2,0.3l0.5,0.1
	c0.2,0,0.3,0.1,0.3,0.4c0,0.4-0.2,0.4-0.6,0.4c-0.1,0-0.3,0-0.5,0l0-0.1c0.2,0,0.3,0,0.5,0c0.4,0,0.5,0,0.5-0.3
	c0-0.2-0.1-0.3-0.3-0.3L16,46.9c-0.2,0-0.3-0.1-0.3-0.4c0-0.4,0.2-0.4,0.5-0.4C16.4,46.1,16.6,46.1,16.8,46.1"/>
<path class="st0" d="M19.9,47.6c-0.1,0-0.2,0-0.3,0c-0.2,0-0.3-0.1-0.3-0.3c-0.2,0.2-0.4,0.3-0.7,0.3c-0.4,0-0.6-0.1-0.6-0.6
	c0-0.3,0.1-0.5,0.4-0.6v0c-0.3,0-0.4-0.2-0.4-0.5c0-0.5,0.2-0.5,0.8-0.5c0.1,0,0.3,0,0.5,0l0,0.1c-0.1,0-0.3,0-0.5,0
	c-0.5,0-0.6,0.1-0.6,0.4c0,0.3,0.1,0.4,0.5,0.4h0.7l0-0.5h0.1v0.5h0.4l0,0.1h-0.4v0.7c0,0.2,0.1,0.2,0.2,0.2L19.9,47.6L19.9,47.6z
	 M19.3,47.2v-0.6h-0.7c-0.4,0-0.6,0.1-0.6,0.5c0,0.3,0.1,0.5,0.5,0.5C18.9,47.5,19.1,47.4,19.3,47.2"/>
<rect x="21.1" y="45.5" class="st0" width="0.1" height="2.1"/>
<path class="st0" d="M23,46.5v1.1h-0.1v-1.1c0-0.2-0.1-0.3-0.3-0.3c-0.2,0-0.4,0.1-0.7,0.3v1.1h-0.1v-1.5h0.1l0,0.3
	c0.2-0.2,0.5-0.3,0.7-0.3C22.8,46.1,23,46.2,23,46.5"/>
<path class="st0" d="M24.7,46.5v1.1h-0.1v-1.1c0-0.2-0.1-0.3-0.3-0.3c-0.2,0-0.4,0.1-0.7,0.3v1.1h-0.1v-1.5h0.1l0,0.3
	c0.2-0.2,0.5-0.3,0.7-0.3C24.5,46.1,24.7,46.2,24.7,46.5"/>
<path class="st0" d="M26.4,46.9c0,0.6-0.2,0.8-0.6,0.8c-0.5,0-0.6-0.2-0.6-0.8c0-0.6,0.2-0.8,0.6-0.8C26.3,46.1,26.4,46.3,26.4,46.9
	 M25.3,46.9c0,0.5,0.1,0.7,0.5,0.7c0.4,0,0.5-0.2,0.5-0.7c0-0.5-0.1-0.7-0.5-0.7C25.4,46.2,25.3,46.4,25.3,46.9"/>
<path class="st0" d="M27.5,47.6C27.5,47.6,27.5,47.6,27.5,47.6l-0.2,0c0,0,0,0-0.1,0l-0.6-1.4h0.1l0.4,1.1l0.1,0.3L27.5,47.6
	c-0.1-0.2,0-0.2,0-0.3l0.4-1.1h0.1L27.5,47.6z"/>
<path class="st0" d="M29.6,46.5v1.1h-0.1l0-0.3c-0.1,0.1-0.4,0.3-0.7,0.3c-0.2,0-0.4-0.1-0.4-0.4V47c0-0.2,0.1-0.3,0.4-0.3h0.7v-0.2
	c0-0.2-0.1-0.3-0.3-0.3c-0.2,0-0.5,0-0.7,0l0-0.1c0.2,0,0.4-0.1,0.7-0.1C29.4,46.1,29.6,46.2,29.6,46.5 M29.4,47.2v-0.4l-0.7,0
	c-0.2,0-0.3,0.1-0.3,0.3v0.2c0,0.2,0.1,0.3,0.3,0.3C29,47.5,29.3,47.4,29.4,47.2"/>
<path class="st0" d="M30.3,47.3c0,0.2,0.1,0.2,0.2,0.2h0.3l0,0.1c-0.1,0-0.2,0-0.3,0c-0.2,0-0.3-0.1-0.3-0.3v-1h-0.3v-0.1l0.3,0
	v-0.5h0.1v0.5h0.5v0.1h-0.5V47.3z"/>
<path class="st0" d="M31.3,45.5C31.3,45.5,31.3,45.5,31.3,45.5l0,0.2c0,0,0,0,0,0h-0.1c0,0,0,0,0,0v-0.2
	C31.2,45.5,31.2,45.5,31.3,45.5L31.3,45.5z M31.2,46.1h0.1v1.5h-0.1V46.1z"/>
<path class="st0" d="M33.1,46.9c0,0.6-0.2,0.8-0.6,0.8c-0.5,0-0.6-0.2-0.6-0.8c0-0.6,0.2-0.8,0.6-0.8C32.9,46.1,33.1,46.3,33.1,46.9
	 M31.9,46.9c0,0.5,0.1,0.7,0.5,0.7c0.4,0,0.5-0.2,0.5-0.7c0-0.5-0.1-0.7-0.5-0.7C32.1,46.2,31.9,46.4,31.9,46.9"/>
<path class="st0" d="M34.8,46.5v1.1h-0.1v-1.1c0-0.2-0.1-0.3-0.3-0.3c-0.2,0-0.4,0.1-0.7,0.3v1.1h-0.1v-1.5h0.1l0,0.3
	c0.2-0.2,0.5-0.3,0.7-0.3C34.6,46.1,34.8,46.2,34.8,46.5"/>
<path class="st0" d="M36.3,46.1L36.3,46.1c-0.2,0.1-0.4,0.1-0.6,0.1c-0.3,0-0.4,0-0.4,0.3c0,0.2,0.1,0.3,0.2,0.3l0.5,0.1
	c0.2,0,0.3,0.1,0.3,0.4c0,0.4-0.2,0.4-0.6,0.4c-0.1,0-0.3,0-0.5,0l0-0.1c0.2,0,0.3,0,0.5,0c0.4,0,0.5,0,0.5-0.3
	c0-0.2-0.1-0.3-0.3-0.3l-0.5-0.1c-0.2,0-0.3-0.1-0.3-0.4c0-0.4,0.2-0.4,0.5-0.4C35.9,46.1,36.1,46.1,36.3,46.1"/>
<rect x="73.9" y="19.1" class="st1" width="2.6" height="23.7"/>
<path class="st1" d="M84.5,42.7h-2.6V25.6h2.5v1.2c1.8-1,3.6-1.5,5.3-1.5c2.3,0,3.8,0.6,4.6,1.8c0.8,1.2,1.2,3.4,1.2,6.6v9H93v-9
	c0-2.4-0.2-4-0.7-4.9c-0.5-0.9-1.5-1.3-3-1.3c-0.7,0-1.5,0.1-2.3,0.3c-0.8,0.2-1.4,0.4-1.9,0.6l-0.7,0.3V42.7z"/>
</svg>
