<?xml version="1.0" encoding="utf-8"?>
<!-- Generator: Adobe Illustrator 22.1.0, SVG Export Plug-In . SVG Version: 6.00 Build 0)  -->
<svg version="1.1" id="Layer_3" xmlns="http://www.w3.org/2000/svg" xmlns:xlink="http://www.w3.org/1999/xlink" x="0px" y="0px"
	 viewBox="0 0 100 100" style="enable-background:new 0 0 100 100;" xml:space="preserve">
<style type="text/css">
	.st0{fill:#1F222B;}
	.st1{fill:#54BE73;}
</style>
<g>
	<g>
		<path class="st0" d="M99.1,48.2L82,31.2c-1-1-2.6-1-3.5,0c-1,1-1,2.5,0,3.5l12.8,12.8H44.5c-1.4,0-2.5,1.1-2.5,2.5
			s1.1,2.5,2.5,2.5h46.8L78.5,65.3c-1,1-1,2.5,0,3.5c0.5,0.5,1.1,0.7,1.8,0.7s1.3-0.3,1.8-0.7l17.1-17.1
			C100.1,50.8,100.1,49.2,99.1,48.2z"/>
	</g>
</g>
<path class="st0" d="M61.2,47.5v5h5v-5H61.2z M66.2,45.5V14.3c0-7-5.7-12.7-12.7-12.7H12.7C5.7,1.5,0,7.3,0,14.3v71.2
	c0,7,5.7,12.7,12.7,12.7h40.7c7,0,12.7-5.7,12.7-12.7V54.5h-5v30.9c0,4.3-3.5,7.7-7.7,7.7H12.7c-4.3,0-7.7-3.5-7.7-7.7V14.3
	c0-4.3,3.5-7.7,7.7-7.7h40.7c4.3,0,7.7,3.5,7.7,7.7v31.2H66.2z"/>
<path class="st1" d="M40,50c0,2.5,2,4.5,4.5,4.5h16.7v30.9c0,4.3-3.5,7.7-7.7,7.7H12.7c-4.3,0-7.7-3.5-7.7-7.7V14.3
	c0-4.3,3.5-7.7,7.7-7.7h40.7c4.3,0,7.7,3.5,7.7,7.7v31.2H44.5C42,45.5,40,47.5,40,50z"/>
<path class="st0" d="M99.1,51.8L82,68.8c-0.5,0.5-1.1,0.7-1.8,0.7s-1.3-0.3-1.8-0.7c-1-1-1-2.5,0-3.5l12.8-12.8H44.5
	c-1.4,0-2.5-1.1-2.5-2.5s1.1-2.5,2.5-2.5h46.8L78.5,34.7c-1-1-1-2.5,0-3.5c1-1,2.5-1,3.5,0l17.1,17.1
	C100.1,49.2,100.1,50.8,99.1,51.8z"/>
</svg>
