<?xml version="1.0" encoding="utf-8"?>
<!-- Generator: Adobe Illustrator 23.0.0, SVG Export Plug-In . SVG Version: 6.00 Build 0)  -->
<svg version="1.1" id="Layer_1" xmlns="http://www.w3.org/2000/svg" xmlns:xlink="http://www.w3.org/1999/xlink" x="0px" y="0px"
	 viewBox="0 0 255 42" style="enable-background:new 0 0 255 42;" xml:space="preserve">
<style type="text/css">
	.st0{fill:#55BE74;}
</style>
<g>
	<path class="st0" d="M14.98,18.22H5.05V2.02c0-0.6-0.49-1.09-1.09-1.09c-0.57,0-1.07,0.49-1.07,1.09v17.1
		c0,0.6,0.49,1.09,1.07,1.09h11.03c0.55,0,0.99-0.44,0.99-0.99C15.96,18.69,15.53,18.22,14.98,18.22z"/>
	<path class="st0" d="M29.24,1.8c-0.25-0.6-0.68-0.96-1.34-0.96h-0.11c-0.68,0-1.09,0.36-1.37,0.96L18.65,18.8
		c-0.11,0.22-0.14,0.41-0.14,0.57c0,0.55,0.44,0.99,0.99,0.99c0.49,0,0.85-0.27,1.04-0.74l2-4.46h10.51l2,4.41
		c0.19,0.44,0.55,0.79,1.07,0.79c0.57,0,1.04-0.47,1.04-1.04c0-0.16-0.05-0.36-0.14-0.55L29.24,1.8z M23.38,13.19l4.41-9.8l4.41,9.8
		H23.38z"/>
	<path class="st0" d="M64.67,15.92c-0.27,0-0.52,0.14-0.68,0.3c-1.64,1.51-3.31,2.33-5.69,2.33c-4.21,0-7.42-3.48-7.42-7.91v-0.05
		c0-4.41,3.17-7.85,7.42-7.85c2.35,0,4.02,0.88,5.5,2.19c0.16,0.11,0.41,0.25,0.71,0.25c0.57,0,1.09-0.49,1.09-1.07
		c0-0.38-0.22-0.68-0.44-0.88c-1.78-1.48-3.75-2.49-6.84-2.49c-5.64,0-9.69,4.49-9.69,9.91v0.05c0,5.5,4.08,9.85,9.6,9.85
		c3.15,0,5.23-1.09,7.11-2.82c0.19-0.16,0.36-0.44,0.36-0.77C65.71,16.42,65.22,15.92,64.67,15.92z"/>
	<path class="st0" d="M129.99,7.2V7.14c0-3.78-2.85-6.07-7.17-6.07h-6.1c-0.57,0-1.07,0.49-1.07,1.09v17.1
		c0,0.6,0.49,1.09,1.07,1.09c0.6,0,1.09-0.49,1.09-1.09v-5.8h4.65C126.54,13.46,129.99,11.33,129.99,7.2z M117.81,3.06h4.84
		c3.09,0,5.14,1.42,5.14,4.16v0.05c0,2.52-2.08,4.21-5.25,4.21h-4.73V3.06z"/>
	<path class="st0" d="M147.04,18.25h-10.95v-6.7h9.58c0.55,0,0.99-0.44,0.99-0.99c0-0.52-0.44-0.99-0.99-0.99h-9.58V3.04h10.81
		c0.55,0,0.99-0.44,0.99-0.99c0-0.55-0.44-0.99-0.99-0.99H135c-0.57,0-1.07,0.49-1.07,1.09v16.97c0,0.6,0.49,1.09,1.07,1.09h12.04
		c0.55,0,0.99-0.44,0.99-0.99C148.02,18.69,147.58,18.25,147.04,18.25z"/>
	<path class="st0" d="M160.5,1.07h-7.17c-0.57,0-1.07,0.49-1.07,1.09v17.1c0,0.6,0.49,1.09,1.07,1.09c0.6,0,1.09-0.49,1.09-1.09
		v-6.49h5.5l5.39,7.01c0.25,0.33,0.57,0.57,1.01,0.57c0.55,0,1.09-0.49,1.09-1.07c0-0.3-0.14-0.55-0.36-0.79l-4.76-6.13
		c2.98-0.57,5.12-2.41,5.12-5.56V6.76c0-1.51-0.55-2.85-1.48-3.78C164.74,1.78,162.85,1.07,160.5,1.07z M165.23,6.89
		c0,2.46-2.05,3.94-4.93,3.94h-5.88V3.06h5.91c3.09,0,4.9,1.42,4.9,3.78V6.89z"/>
	<path class="st0" d="M181.46,1.8c-0.25-0.6-0.68-0.96-1.34-0.96h-0.11c-0.68,0-1.09,0.36-1.37,0.96l-7.77,16.99
		c-0.11,0.22-0.14,0.41-0.14,0.57c0,0.55,0.44,0.99,0.99,0.99c0.49,0,0.85-0.27,1.04-0.74l2-4.46h10.51l2,4.41
		c0.19,0.44,0.55,0.79,1.07,0.79c0.57,0,1.04-0.47,1.04-1.04c0-0.16-0.05-0.36-0.14-0.55L181.46,1.8z M175.6,13.19l4.41-9.8
		l4.41,9.8H175.6z"/>
	<path class="st0" d="M203.95,1.07h-13.3c-0.55,0-1.01,0.47-1.01,1.01s0.47,0.99,1.01,0.99h5.56v16.2c0,0.6,0.49,1.09,1.09,1.09
		s1.09-0.49,1.09-1.09V3.06h5.55c0.55,0,1.01-0.44,1.01-0.99S204.5,1.07,203.95,1.07z"/>
	<path class="st0" d="M211.23,2.02c0-0.6-0.49-1.09-1.09-1.09c-0.57,0-1.07,0.49-1.07,1.09v17.24c0,0.6,0.49,1.09,1.07,1.09
		c0.6,0,1.09-0.49,1.09-1.09V2.02z"/>
	<path class="st0" d="M224.26,20.44h0.11c0.63,0,1.01-0.36,1.26-0.9l7.42-17.13c0.05-0.14,0.08-0.27,0.08-0.44
		c0-0.55-0.47-1.04-1.07-1.04c-0.49,0-0.88,0.38-1.07,0.77l-6.65,15.93l-6.62-15.87c-0.19-0.47-0.57-0.82-1.12-0.82
		c-0.6,0-1.09,0.52-1.09,1.07c0,0.19,0.03,0.33,0.11,0.49L223,19.54C223.22,20.08,223.63,20.44,224.26,20.44z"/>
	<path class="st0" d="M251.29,19.24c0-0.55-0.44-0.99-0.99-0.99h-10.95v-6.7h9.58c0.55,0,0.99-0.44,0.99-0.99
		c0-0.52-0.44-0.99-0.99-0.99h-9.58V3.04h10.81c0.55,0,0.99-0.44,0.99-0.99c0-0.55-0.44-0.99-0.99-0.99h-11.9
		c-0.57,0-1.07,0.49-1.07,1.09v16.97c0,0.6,0.49,1.09,1.07,1.09h12.04C250.86,20.22,251.29,19.78,251.29,19.24z"/>
	<path class="st0" d="M73.83,20.34h17.1h0.35h17.1c0.38,0,0.69-0.31,0.69-0.69V1.62c0-0.38-0.31-0.69-0.69-0.69h-17.1h-0.35h-17.1
		c-0.38,0-0.69,0.31-0.69,0.69v18.02C73.14,20.03,73.45,20.34,73.83,20.34z M91.97,2.66h15.37V18.6H91.97V2.66z M74.87,2.66h15.37
		V18.6H74.87V2.66z"/>
	<rect x="77.3" y="6.51" class="st0" width="4.81" height="1.79"/>
	<rect x="77.3" y="9.91" class="st0" width="10.28" height="1.79"/>
	<rect x="77.3" y="13.31" class="st0" width="2.64" height="1.79"/>
	<rect x="80.79" y="13.31" class="st0" width="6.79" height="1.79"/>
	<rect x="83.72" y="6.51" class="st0" width="3.87" height="1.79"/>
	<rect x="94.52" y="6.51" class="st0" width="5.78" height="1.79"/>
	<rect x="94.52" y="9.91" class="st0" width="10.28" height="1.79"/>
	<rect x="94.52" y="13.31" class="st0" width="2.64" height="1.79"/>
	<rect x="98.01" y="13.31" class="st0" width="6.79" height="1.79"/>
	<rect x="101.68" y="6.51" class="st0" width="3.12" height="1.79"/>
	<path class="st0" d="M4.71,30.51H1.64c-0.32,0-0.59,0.27-0.59,0.59v9.61c0,0.32,0.27,0.59,0.59,0.59h3.07
		c3.31,0,5.71-2.27,5.71-5.42C10.42,32.76,8.02,30.51,4.71,30.51z M2.23,31.62h2.48c2.62,0,4.51,1.8,4.51,4.31
		c0,2.5-1.86,4.25-4.51,4.25H2.23V31.62z"/>
	<path class="st0" d="M28.6,40.17h-6.19v-3.77h5.45c0.3,0,0.56-0.25,0.56-0.56s-0.25-0.56-0.56-0.56h-5.45v-3.68h6.11
		c0.3,0,0.56-0.25,0.56-0.56s-0.25-0.56-0.56-0.56h-6.7c-0.32,0-0.59,0.27-0.59,0.59v9.61c0,0.32,0.27,0.59,0.59,0.59h6.77
		c0.3,0,0.56-0.25,0.56-0.56S28.9,40.17,28.6,40.17z"/>
	<path class="st0" d="M56.47,30.51H53.4c-0.32,0-0.59,0.27-0.59,0.59v9.61c0,0.32,0.27,0.59,0.59,0.59h3.07
		c3.31,0,5.71-2.27,5.71-5.42C62.18,32.76,59.78,30.51,56.47,30.51z M53.99,31.62h2.48c2.62,0,4.51,1.8,4.51,4.31
		c0,2.5-1.86,4.25-4.51,4.25h-2.48V31.62z"/>
	<path class="st0" d="M73.69,30.45c-0.32,0-0.59,0.27-0.59,0.59v9.72c0,0.32,0.27,0.59,0.59,0.59s0.59-0.27,0.59-0.59v-9.72
		C74.28,30.72,74.01,30.45,73.69,30.45z"/>
	<path class="st0" d="M89.45,35.32c-2.41-0.49-2.86-1.11-2.86-2.1c0-1.02,0.98-1.76,2.33-1.76c1.05,0,1.9,0.29,2.74,0.93
		c0.11,0.09,0.24,0.13,0.38,0.13c0.32,0,0.59-0.27,0.59-0.59c0-0.18-0.08-0.34-0.24-0.47c-1.04-0.78-2.06-1.11-3.43-1.11
		c-2.02,0-3.54,1.26-3.54,2.96c0,1.69,1.06,2.59,3.66,3.12c2.33,0.47,2.77,1.07,2.77,2.04c0,1.1-1,1.86-2.42,1.86
		c-1.35,0-2.35-0.39-3.38-1.31c-0.11-0.08-0.24-0.13-0.37-0.13c-0.32,0-0.59,0.27-0.59,0.59c0,0.17,0.08,0.34,0.22,0.45
		c1.26,1.04,2.51,1.5,4.07,1.5c2.14,0,3.64-1.25,3.64-3.06C93.02,36.74,91.95,35.83,89.45,35.32z"/>
	<path class="st0" d="M110.69,30.51h-7.41c-0.3,0-0.56,0.25-0.56,0.56s0.25,0.56,0.56,0.56h3.12v9.14c0,0.32,0.27,0.59,0.59,0.59
		s0.59-0.27,0.59-0.59v-9.14h3.12c0.3,0,0.56-0.25,0.56-0.56S110.99,30.51,110.69,30.51z"/>
	<path class="st0" d="M127.31,36.8c1.81-0.35,2.88-1.5,2.88-3.14c0-0.78-0.31-1.53-0.84-2.07c-0.7-0.7-1.79-1.08-3.06-1.08h-3.97
		c-0.32,0-0.59,0.27-0.59,0.59v9.66c0,0.32,0.27,0.59,0.59,0.59s0.59-0.27,0.59-0.59v-3.77h3.1l3.13,4.07
		c0.05,0.07,0.22,0.29,0.5,0.29c0.32,0,0.6-0.28,0.6-0.6c0-0.13-0.05-0.26-0.16-0.39L127.31,36.8z M122.9,31.62h3.34
		c1.74,0,2.78,0.77,2.78,2.1c0,1.32-1.11,2.17-2.82,2.17h-3.3V31.62z"/>
	<path class="st0" d="M141.73,30.45c-0.32,0-0.59,0.27-0.59,0.59v9.72c0,0.32,0.27,0.59,0.59,0.59s0.58-0.27,0.58-0.59v-9.72
		C142.32,30.72,142.05,30.45,141.73,30.45z"/>
	<path class="st0" d="M160.33,35.71c0.92-0.53,1.42-1.37,1.42-2.45c0-0.69-0.24-1.29-0.73-1.77c-0.63-0.63-1.64-0.98-2.84-0.98h-3.9
		c-0.32,0-0.59,0.27-0.59,0.59v9.61c0,0.32,0.27,0.59,0.59,0.59h4.12c2.38,0,3.92-1.19,3.92-3.06
		C162.33,37.04,161.64,36.18,160.33,35.71z M158.09,35.3h-3.22v-3.68h3.3c1.5,0,2.39,0.64,2.39,1.74
		C160.56,34.56,159.62,35.3,158.09,35.3z M154.87,36.41h3.31c1.1,0,2.96,0.24,2.96,1.85c0,1.18-1.04,1.92-2.71,1.92h-3.57V36.41z"/>
	<path class="st0" d="M181.16,30.45c-0.32,0-0.58,0.27-0.58,0.59v5.74c0,2.31-1.16,3.58-3.25,3.58c-2.11,0-3.31-1.33-3.31-3.65
		v-5.66c0-0.32-0.27-0.59-0.59-0.59s-0.59,0.27-0.59,0.59v5.74c0,2.88,1.71,4.68,4.46,4.68c2.75,0,4.45-1.83,4.45-4.77v-5.65
		C181.74,30.72,181.48,30.45,181.16,30.45z"/>
	<path class="st0" d="M200.03,30.51h-7.41c-0.3,0-0.56,0.25-0.56,0.56s0.25,0.56,0.56,0.56h3.12v9.14c0,0.32,0.27,0.59,0.59,0.59
		s0.59-0.27,0.59-0.59v-9.14h3.12c0.3,0,0.56-0.25,0.56-0.56S200.33,30.51,200.03,30.51z"/>
	<path class="st0" d="M211.75,30.45c-0.32,0-0.59,0.27-0.59,0.59v9.72c0,0.32,0.27,0.59,0.59,0.59s0.58-0.27,0.58-0.59v-9.72
		C212.34,30.72,212.07,30.45,211.75,30.45z"/>
	<path class="st0" d="M228.7,30.33c-3.4,0-5.43,2.83-5.43,5.6c0,3.16,2.32,5.54,5.4,5.54c3.4,0,5.43-2.83,5.43-5.6
		C234.1,32.71,231.78,30.33,228.7,30.33z M228.7,40.37c-2.37,0-4.23-1.96-4.23-4.5c0-2.53,1.81-4.44,4.2-4.44
		c2.37,0,4.23,1.96,4.23,4.5C232.9,38.46,231.09,40.37,228.7,40.37z"/>
	<path class="st0" d="M253.38,30.45c-0.32,0-0.57,0.25-0.57,0.57v8.17l-6.64-8.42c-0.16-0.2-0.33-0.3-0.54-0.3h-0.12
		c-0.32,0-0.58,0.27-0.58,0.59v9.72c0,0.32,0.25,0.57,0.57,0.57s0.57-0.25,0.57-0.57v-8.36l6.77,8.59c0.12,0.15,0.29,0.33,0.6,0.33
		c0.29,0,0.51-0.23,0.51-0.53v-9.78C253.95,30.7,253.7,30.45,253.38,30.45z"/>
</g>
</svg>
