<?xml version="1.0" encoding="utf-8"?>
<!-- Generator: Adobe Illustrator 22.1.0, SVG Export Plug-In . SVG Version: 6.00 Build 0)  -->
<svg version="1.1" xmlns="http://www.w3.org/2000/svg" xmlns:xlink="http://www.w3.org/1999/xlink" x="0px" y="0px"
	 viewBox="0 0 100 100" style="enable-background:new 0 0 100 100;" xml:space="preserve">
<style type="text/css">
	.st0{fill:#54BE73;}
	.st1{fill:#1F222B;}
	.st2{display:none;fill:#1F222B;}
	.st3{fill:#FFFFFF;}
</style>
<g id="Layer_5">
	<g id="Layer_7">
		<polygon class="st0" points="47.5,5.1 47.5,25 9.8,25 25.5,5.1 		"/>
		<rect x="7.2" y="30" class="st0" width="85.7" height="64.9"/>
		<polygon class="st0" points="90.2,25 52.5,25 52.5,5.1 74.5,5.1 		"/>
	</g>
	<g>
		<path class="st1" d="M97.8,27.1c0-0.1,0-0.2-0.1-0.3l0-0.2l0-0.1l-0.1-0.2l0,0c0,0,0-0.1,0-0.1c0,0-0.1-0.1-0.1-0.1l0-0.1l0,0
			L77.7,1.1c-0.5-0.6-1.2-1-2-1H24.3c-0.8,0-1.5,0.3-2,1C22.3,1.1,2.7,26,2.7,26l0,0l0,0.1l-0.1,0.1c0,0.1-0.1,0.2-0.1,0.2
			c0,0-0.1,0.1-0.1,0.2l-0.1,0.2c0,0,0,0,0,0.1l0,0.1l0,0.1c0,0.1,0,0.3,0,0.4v69.8c0,1.4,1.1,2.5,2.5,2.5h90.6
			c1.4,0,2.5-1.1,2.5-2.5V27.5C97.8,27.3,97.8,27.2,97.8,27.1z M52.5,5.1h22L90.2,25H52.5V5.1z M25.5,5.1h22V25H9.8L25.5,5.1z
			 M92.8,94.8H7.2V30h85.7V94.8z"/>
		<path class="st2" d="M20.4,52.5h59.3c1.4,0,2.5-1.1,2.5-2.5c0-1.4-1.1-2.5-2.5-2.5H20.4c-1.4,0-2.5,1.1-2.5,2.5
			C17.9,51.4,19,52.5,20.4,52.5z"/>
		<path class="st2" d="M68.4,61.1H31.6c-1.4,0-2.5,1.1-2.5,2.5c0,1.4,1.1,2.5,2.5,2.5h36.8c1.4,0,2.5-1.1,2.5-2.5
			C70.9,62.2,69.8,61.1,68.4,61.1z"/>
		<path class="st2" d="M68.4,74.7H31.6c-1.4,0-2.5,1.1-2.5,2.5c0,1.4,1.1,2.5,2.5,2.5h36.8c1.4,0,2.5-1.1,2.5-2.5
			C70.9,75.8,69.8,74.7,68.4,74.7z"/>
	</g>
</g>
<g id="Layer_6">
	<g>
		<path class="st1" d="M50,39.7c-12.5,0-22.7,10.2-22.7,22.7C27.3,75,37.5,85.1,50,85.1c12.6,0,22.7-10.2,22.7-22.7
			C72.7,49.9,62.5,39.7,50,39.7z M50,79.7c-9.5,0-17.2-7.7-17.2-17.2c0-9.5,7.7-17.2,17.2-17.2c9.5,0,17.3,7.7,17.3,17.2
			C67.2,71.9,59.5,79.7,50,79.7z"/>
		<path class="st3" d="M67.2,62.4c0,9.5-7.7,17.2-17.3,17.2c-9.5,0-17.2-7.7-17.2-17.2c0-9.5,7.7-17.2,17.2-17.2
			C59.5,45.2,67.2,52.9,67.2,62.4z"/>
		<path class="st1" d="M62.3,62.6L62.3,62.6c0,1.6-1.3,3-3,3H40.7c-1.6,0-3-1.3-3-3v0c0-1.6,1.3-3,3-3h18.6
			C61,59.6,62.3,60.9,62.3,62.6z"/>
		<path class="st1" d="M50,50.3L50,50.3c1.6,0,3,1.3,3,3v18.6c0,1.6-1.3,3-3,3h0c-1.6,0-3-1.3-3-3V53.3C47,51.6,48.4,50.3,50,50.3z"
			/>
	</g>
</g>
</svg>
