<?xml version="1.0" encoding="utf-8"?>
<!-- Generator: Adobe Illustrator 22.1.0, SVG Export Plug-In . SVG Version: 6.00 Build 0)  -->
<svg version="1.1" xmlns="http://www.w3.org/2000/svg" xmlns:xlink="http://www.w3.org/1999/xlink" x="0px" y="0px"
	 viewBox="0 0 100 100" style="enable-background:new 0 0 100 100;" xml:space="preserve">
<style type="text/css">
	.st0{display:none;}
	.st1{display:inline;}
	.st2{fill:#54BE73;}
	.st3{fill:#1F222B;}
	.st4{display:inline;fill:#1F222B;}
	.st5{fill:#2C2F33;}
	.st6{fill:#3C92CA;}
	.st7{display:none;fill:#1F222B;}
	.st8{fill:#FFFFFF;}
</style>
<g id="Layer_3" class="st0">
	<g class="st1">
		<polygon class="st2" points="23.1,20.3 23.1,89.5 76.9,89.5 76.9,20.3 61.5,20.3 61.5,26.1 38.5,26.1 38.5,20.3 		"/>
	</g>
	<path class="st3" d="M23.1,92c-1.4,0-2.6-1.2-2.6-2.6V20.2c0-1.4,1.2-2.6,2.6-2.6h12.8v-3.3c0-1.4,1.2-2.6,2.6-2.6h3.2v-1.3
		c0-1.4,1.2-2.6,2.6-2.6h11.5c0.7,0,1.3,0.3,1.8,0.8c0.5,0.5,0.8,1.1,0.8,1.8v1.2h3.2c1.4,0,2.6,1.2,2.6,2.6v3.3h12.8
		c1.4,0,2.6,1.2,2.6,2.6v69.2c0,1.4-1.2,2.6-2.6,2.6H23.1z M74.3,86.9v-64H64.1v3.2c0,1.4-1.2,2.6-2.6,2.6H38.5
		c-1.4,0-2.6-1.2-2.6-2.6v-3.2H25.7v64H74.3z M59,23.5V17H41.1l0,6.5H59z"/>
	<path class="st4" d="M23.1,91c-0.9,0-1.6-0.7-1.6-1.6V20.2c0-0.9,0.7-1.6,1.6-1.6h13.8v-4.3c0-0.9,0.7-1.6,1.6-1.6h4.2v-2.3
		c0-0.9,0.7-1.6,1.6-1.6h11.5c0.4,0,0.8,0.2,1.1,0.5c0.3,0.3,0.5,0.7,0.5,1.1v2.2h4.2c0.9,0,1.6,0.7,1.6,1.6v4.3h13.8
		c0.9,0,1.6,0.7,1.6,1.6v69.2c0,0.9-0.7,1.6-1.6,1.6H23.1z M24.7,87.9h50.6v-66H63.1v4.2c0,0.9-0.7,1.6-1.6,1.6H38.5
		c-0.9,0-1.6-0.7-1.6-1.6v-4.2H24.7V87.9z M40.1,24.5H60V16H40.1L40.1,24.5z"/>
	<path class="st3" d="M36.5,42.5c-1.4,0-2.6-1.2-2.6-2.6s1.2-2.6,2.6-2.6h27.1c1.4,0,2.6,1.2,2.6,2.6s-1.2,2.6-2.6,2.6H36.5z"/>
	<path class="st4" d="M36.5,41.5c-0.9,0-1.6-0.7-1.6-1.6s0.7-1.6,1.6-1.6h27.1c0.9,0,1.6,0.7,1.6,1.6s-0.7,1.6-1.6,1.6H36.5z"/>
	<path class="st3" d="M36.5,54.3c-1.4,0-2.6-1.2-2.6-2.6c0-1.4,1.2-2.6,2.6-2.6h27.1c1.4,0,2.6,1.2,2.6,2.6c0,1.4-1.2,2.6-2.6,2.6
		H36.5z"/>
	<path class="st4" d="M36.5,53.3c-0.9,0-1.6-0.7-1.6-1.6s0.7-1.6,1.6-1.6h27.1c0.9,0,1.6,0.7,1.6,1.6s-0.7,1.6-1.6,1.6H36.5z"/>
	<path class="st3" d="M36.5,66.2c-1.4,0-2.6-1.2-2.6-2.6c0-1.4,1.2-2.6,2.6-2.6h27.1c1.4,0,2.6,1.2,2.6,2.6c0,1.4-1.2,2.6-2.6,2.6
		H36.5z"/>
	<path class="st4" d="M36.5,65.2c-0.9,0-1.6-0.7-1.6-1.6c0-0.9,0.7-1.6,1.6-1.6h27.1c0.9,0,1.6,0.7,1.6,1.6c0,0.9-0.7,1.6-1.6,1.6
		H36.5z"/>
	<path class="st3" d="M53.8,78c-1.4,0-2.6-1.2-2.6-2.6s1.2-2.6,2.6-2.6h9.8c1.4,0,2.6,1.2,2.6,2.6S65,78,63.5,78H53.8z"/>
	<path class="st4" d="M53.8,77c-0.9,0-1.6-0.7-1.6-1.6s0.7-1.6,1.6-1.6h9.8c0.9,0,1.6,0.7,1.6,1.6S64.4,77,63.5,77H53.8z"/>
</g>
<g id="Layer_3_copy" class="st0">
	<g class="st1">
		<polygon class="st2" points="18,14.6 18,96.9 82,96.9 82,14.6 63.7,14.6 63.7,21.5 36.3,21.5 36.3,14.6 		"/>
	</g>
	<g class="st1">
		<path class="st3" d="M82,12.2H66.1V7.6c0-1.3-1.1-2.4-2.4-2.4h-4.5V3.1c0-0.6-0.2-1.2-0.7-1.7c-0.5-0.5-1-0.7-1.7-0.7H43.2
			c-1.3,0-2.4,1.1-2.4,2.4v2.2h-4.5c-1.3,0-2.4,1.1-2.4,2.4v4.6H18c-1.3,0-2.4,1.1-2.4,2.4v82.3c0,1.3,1.1,2.4,2.4,2.4h64
			c1.3,0,2.4-1.1,2.4-2.4V14.6C84.4,13.3,83.3,12.2,82,12.2z M38.7,10h22.6v9.1H38.7L38.7,10z M36.3,23.9h27.4
			c1.3,0,2.4-1.1,2.4-2.4V17h13.5v77.5H20.4V17h13.5v4.5C33.9,22.9,35,23.9,36.3,23.9z"/>
		<path class="st3" d="M31.5,38c0,1.3,1.1,2.4,2.4,2.4h32.2c1.3,0,2.4-1.1,2.4-2.4c0-1.3-1.1-2.4-2.4-2.4H33.9
			C32.6,35.6,31.5,36.7,31.5,38z"/>
		<path class="st3" d="M66.1,49.7H33.9c-1.3,0-2.4,1.1-2.4,2.4c0,1.3,1.1,2.4,2.4,2.4h32.2c1.3,0,2.4-1.1,2.4-2.4
			C68.5,50.8,67.4,49.7,66.1,49.7z"/>
		<path class="st3" d="M66.1,63.8H33.9c-1.3,0-2.4,1.1-2.4,2.4c0,1.3,1.1,2.4,2.4,2.4h32.2c1.3,0,2.4-1.1,2.4-2.4
			C68.5,64.9,67.4,63.8,66.1,63.8z"/>
		<path class="st3" d="M66.1,77.9H54.5c-1.3,0-2.4,1.1-2.4,2.4s1.1,2.4,2.4,2.4h11.6c1.3,0,2.4-1.1,2.4-2.4S67.4,77.9,66.1,77.9z"/>
	</g>
</g>
<g id="Layer_4" class="st0">
	<g class="st1">
		<path class="st5" d="M-9.4,100h91.2c1.1,0,2-0.9,2-2V27.7c0-0.1,0-0.2,0-0.4c0,0,0-0.1,0-0.1c0-0.1,0-0.1-0.1-0.2
			c0,0,0-0.1-0.1-0.1c0-0.1-0.1-0.1-0.1-0.2c0,0-0.1-0.1-0.1-0.1c0,0,0,0,0-0.1l-19.7-25c-0.4-0.5-0.9-0.8-1.6-0.8H10.3
			C9.7,0.7,9.1,1,8.8,1.5l-19.7,25c0,0,0,0,0,0.1c0,0-0.1,0.1-0.1,0.1c0,0.1-0.1,0.1-0.1,0.2c0,0,0,0.1-0.1,0.1c0,0.1,0,0.1-0.1,0.2
			c0,0,0,0.1,0,0.1c0,0.1,0,0.2,0,0.4V98C-11.4,99.1-10.5,100-9.4,100L-9.4,100z M38.3,4.7h22.9l16.6,21H38.3V4.7z M11.3,4.7h22.9
			v21H-5.3L11.3,4.7z M-7.4,29.7h87.2V96H-7.4V29.7z M-7.4,29.7"/>
		<path class="st6" d="M66.1,48.3H6.4c-1.1,0-2,0.9-2,2c0,1.1,0.9,2,2,2h59.7c1.1,0,2-0.9,2-2C68.1,49.2,67.2,48.3,66.1,48.3
			L66.1,48.3z M66.1,48.3"/>
		<path class="st6" d="M54.8,62h-37c-1.1,0-2,0.9-2,2c0,1.1,0.9,2,2,2h37c1.1,0,2-0.9,2-2C56.8,62.9,55.9,62,54.8,62L54.8,62z
			 M54.8,62"/>
		<path class="st6" d="M54.8,75.7h-37c-1.1,0-2,0.9-2,2c0,1.1,0.9,2,2,2h37c1.1,0,2-0.9,2-2C56.8,76.6,55.9,75.7,54.8,75.7
			L54.8,75.7z M54.8,75.7"/>
	</g>
</g>
<g id="Layer_5">
	<g id="Layer_7">
		<polygon class="st2" points="47.5,5.1 47.5,25 9.8,25 25.5,5.1 		"/>
		<rect x="7.2" y="30" class="st2" width="85.7" height="64.9"/>
		<polygon class="st2" points="90.2,25 52.5,25 52.5,5.1 74.5,5.1 		"/>
	</g>
	<g>
		<path class="st3" d="M97.8,27.1c0-0.1,0-0.2-0.1-0.3l0-0.2l0-0.1l-0.1-0.2l0,0c0,0,0-0.1,0-0.1c0,0-0.1-0.1-0.1-0.1l0-0.1l0,0
			L77.7,1.1c-0.5-0.6-1.2-1-2-1H24.3c-0.8,0-1.5,0.3-2,1C22.3,1.1,2.7,26,2.7,26l0,0l0,0.1l-0.1,0.1c0,0.1-0.1,0.2-0.1,0.2
			c0,0-0.1,0.1-0.1,0.2l-0.1,0.2c0,0,0,0,0,0.1l0,0.1l0,0.1c0,0.1,0,0.3,0,0.4v69.8c0,1.4,1.1,2.5,2.5,2.5h90.6
			c1.4,0,2.5-1.1,2.5-2.5V27.5C97.8,27.3,97.8,27.2,97.8,27.1z M52.5,5.1h22L90.2,25H52.5V5.1z M25.5,5.1h22V25H9.8L25.5,5.1z
			 M92.8,94.8H7.2V30h85.7V94.8z"/>
		<path class="st7" d="M20.4,52.5h59.3c1.4,0,2.5-1.1,2.5-2.5c0-1.4-1.1-2.5-2.5-2.5H20.4c-1.4,0-2.5,1.1-2.5,2.5
			C17.9,51.4,19,52.5,20.4,52.5z"/>
		<path class="st7" d="M68.4,61.1H31.6c-1.4,0-2.5,1.1-2.5,2.5c0,1.4,1.1,2.5,2.5,2.5h36.8c1.4,0,2.5-1.1,2.5-2.5
			C70.9,62.2,69.8,61.1,68.4,61.1z"/>
		<path class="st7" d="M68.4,74.7H31.6c-1.4,0-2.5,1.1-2.5,2.5c0,1.4,1.1,2.5,2.5,2.5h36.8c1.4,0,2.5-1.1,2.5-2.5
			C70.9,75.8,69.8,74.7,68.4,74.7z"/>
	</g>
</g>
<g id="Layer_6">
	<g>
		<path class="st3" d="M50,39.7c-12.5,0-22.7,10.2-22.7,22.7C27.3,75,37.5,85.1,50,85.1c12.6,0,22.7-10.2,22.7-22.7
			C72.7,49.9,62.5,39.7,50,39.7z M50,79.7c-9.5,0-17.2-7.7-17.2-17.2c0-9.5,7.7-17.2,17.2-17.2c9.5,0,17.3,7.7,17.3,17.2
			C67.2,71.9,59.5,79.7,50,79.7z"/>
		<path class="st8" d="M67.2,62.4c0,9.5-7.7,17.2-17.3,17.2c-9.5,0-17.2-7.7-17.2-17.2c0-9.5,7.7-17.2,17.2-17.2
			C59.5,45.2,67.2,52.9,67.2,62.4z"/>
		<path class="st3" d="M62.3,62.6L62.3,62.6c0,1.6-1.3,3-3,3H40.7c-1.6,0-3-1.3-3-3v0c0-1.6,1.3-3,3-3h18.6
			C61,59.6,62.3,60.9,62.3,62.6z"/>
		<path class="st3" d="M50,50.3L50,50.3c1.6,0,3,1.3,3,3v18.6c0,1.6-1.3,3-3,3h0c-1.6,0-3-1.3-3-3V53.3C47,51.6,48.4,50.3,50,50.3z"
			/>
	</g>
</g>
</svg>
