<?xml version="1.0" encoding="utf-8"?>
<!-- Generator: Adobe Illustrator 23.0.0, SVG Export Plug-In . SVG Version: 6.00 Build 0)  -->
<svg version="1.1" id="Calque_1" xmlns="http://www.w3.org/2000/svg" xmlns:xlink="http://www.w3.org/1999/xlink" x="0px" y="0px"
	 viewBox="0 0 469 469" style="enable-background:new 0 0 469 469;" xml:space="preserve">
<style type="text/css">
	.st0{fill:#C7EAD1;}
	.st1{fill:#55BE74;}
	.st2{fill:#F8F3F3;}
	.st3{fill:#FF8383;}
	.st4{fill:#E84D4D;}
</style>
<path class="st0" d="M83,108.6h326.1v281.1H72V119.6C72,113.6,76.9,108.6,83,108.6z"/>
<path class="st1" d="M409.1,38H72c-2.2,0-4,1.8-4,4v4h337.1v339.7H68v4c0,2.2,1.8,4,4,4h337.1c2.2,0,4-1.8,4-4V42
	C413.1,39.8,411.3,38,409.1,38z"/>
<path class="st1" d="M341.1,38H4c-2.2,0-4,1.8-4,4v347.7c0,2.2,1.8,4,4,4h337.1c2.2,0,4-1.8,4-4V42C345.1,39.8,343.3,38,341.1,38z
	 M337.1,385.8H8V46h329.1V385.8z"/>
<path class="st2" d="M216.4,153.5l-14.6,11.3l-14.6-11.3l-14.6,11.3l-14.6-11.3l-14.6,11.3l-14.6-11.3V42.1h87.7V153.5z"/>
<path class="st1" d="M143.3,168.8c-0.9,0-1.7-0.3-2.4-0.8l-14.6-11.3c-1-0.8-1.6-1.9-1.6-3.2V42c0-2.2,1.8-4,4-4h87.7
	c2.2,0,4,1.8,4,4v111.4c0,1.2-0.6,2.4-1.6,3.2l-14.6,11.3c-1.4,1.1-3.4,1.1-4.9,0l-12.2-9.4l-12.2,9.4c-1.4,1.1-3.4,1.1-4.9,0
	l-12.1-9.4l-12.2,9.4C145,168.5,144.1,168.8,143.3,168.8z M187.1,149.5c0.9,0,1.7,0.3,2.4,0.8l12.2,9.4l10.6-8.2V46h-79.7v105.5
	l10.6,8.2l12.2-9.4c1.4-1.1,3.4-1.1,4.9,0l12.1,9.4l12.2-9.4C185.4,149.7,186.2,149.5,187.1,149.5z"/>
<path class="st0" d="M49.3,294.2h71v45.5h-71V294.2z"/>
<path class="st1" d="M120.3,343.7h-71c-2.2,0-4-1.8-4-4v-45.5c0-2.2,1.8-4,4-4h71c2.2,0,4,1.8,4,4v45.5
	C124.3,341.9,122.5,343.7,120.3,343.7z M53.3,335.7h63v-37.5h-63V335.7z"/>
<path class="st3" d="M327.2,215.8L219.3,402.7c-6.2,10.7,1.5,24,13.9,24H449c12.3,0,20-13.3,13.9-24L354.9,215.8
	C348.8,205.1,333.4,205.1,327.2,215.8z"/>
<path class="st4" d="M449,430.7H233.2c-7.2,0-13.7-3.7-17.3-10c-3.6-6.3-3.6-13.7,0-20l107.9-186.9c3.6-6.3,10.1-10,17.3-10
	c7.2,0,13.7,3.7,17.3,10l107.9,186.9c3.6,6.3,3.6,13.7,0,20C462.7,426.9,456.2,430.7,449,430.7z M341.1,211.8c-4.3,0-8.2,2.2-10.4,6
	L222.8,404.7c-2.2,3.8-2.2,8.2,0,12c2.2,3.8,6.1,6,10.4,6H449c4.3,0,8.2-2.2,10.4-6c2.2-3.8,2.2-8.2,0-12L351.5,217.8
	C349.3,214,345.4,211.8,341.1,211.8z"/>
<path class="st2" d="M341.1,359c-4.9,0-8.9-4-8.9-8.9v-57.7c0-4.9,4-8.9,8.9-8.9c4.9,0,8.9,4,8.9,8.9v57.7
	C350,355,346,359,341.1,359z"/>
<path class="st2" d="M350.2,383.6c0,5-4,9-9,9c-5,0-9-4-9-9c0-5,4-9,9-9C346.2,374.6,350.2,378.6,350.2,383.6z"/>
<g>
	<path class="st4" d="M341.1,363c-7.1,0-12.9-5.8-12.9-12.9v-57.7c0-7.1,5.8-12.9,12.9-12.9c7.1,0,12.9,5.8,12.9,12.9v57.7
		C354,357.2,348.2,363,341.1,363z M341.1,287.5c-2.7,0-4.9,2.2-4.9,4.9v57.7c0,2.7,2.2,4.9,4.9,4.9c2.7,0,4.9-2.2,4.9-4.9v-57.7
		C346,289.7,343.8,287.5,341.1,287.5z"/>
	<path class="st4" d="M341.2,396.6c-7.2,0-13-5.8-13-13s5.8-13,13-13s13,5.8,13,13S348.4,396.6,341.2,396.6z M341.2,378.6
		c-2.8,0-5,2.2-5,5c0,2.8,2.2,5,5,5c2.8,0,5-2.2,5-5C346.2,380.8,343.9,378.6,341.2,378.6z"/>
</g>
</svg>
