<?xml version="1.0" encoding="utf-8"?>
<!-- Generator: Adobe Illustrator 23.0.0, SVG Export Plug-In . SVG Version: 6.00 Build 0)  -->
<svg version="1.1" id="Layer_6" xmlns="http://www.w3.org/2000/svg" xmlns:xlink="http://www.w3.org/1999/xlink" x="0px" y="0px"
	 viewBox="0 0 108.53 78.53" style="enable-background:new 0 0 108.53 78.53;" xml:space="preserve">
<style type="text/css">
	.st0{fill:#55BE74;}
	.st1{opacity:0.33;fill:#55BE74;}
</style>
<g>
	<path class="st0" d="M62.02,42.43c3.09,0,5.6-2.51,5.6-5.6c0-3.09-2.51-5.6-5.6-5.6c-1.33,0-2.54,0.46-3.5,1.23
		c-0.96-0.77-2.17-1.23-3.5-1.23c-3.09,0-5.6,2.51-5.6,5.6c0,3.09,2.51,5.6,5.6,5.6c1.33,0,2.54-0.46,3.5-1.23
		C59.48,41.96,60.69,42.43,62.02,42.43z"/>
	<path class="st0" d="M26.75,49.07h-5.67c-1.1,0-2,0.9-2,2v2.17c0,1.1,0.9,2,2,2h5.67c1.1,0,2-0.9,2-2v-2.17
		C28.75,49.96,27.85,49.07,26.75,49.07z"/>
	<path class="st0" d="M39.72,49.07h-5.67c-1.1,0-2,0.9-2,2v2.17c0,1.1,0.9,2,2,2h5.67c1.1,0,2-0.9,2-2v-2.17
		C41.72,49.96,40.83,49.07,39.72,49.07z"/>
	<path class="st0" d="M52.69,49.07h-5.67c-1.1,0-2,0.9-2,2v2.17c0,1.1,0.9,2,2,2h5.67c1.1,0,2-0.9,2-2v-2.17
		C54.69,49.96,53.8,49.07,52.69,49.07z"/>
	<path class="st0" d="M65.67,49.07H60c-1.1,0-2,0.9-2,2v2.17c0,1.1,0.9,2,2,2h5.67c1.1,0,2-0.9,2-2v-2.17
		C67.67,49.96,66.77,49.07,65.67,49.07z"/>
	<path class="st0" d="M70.76,24.17H16.08c-2.48,0-4.5,2.02-4.5,4.5v30.4c0,2.48,2.02,4.5,4.5,4.5h54.68c2.48,0,4.5-2.02,4.5-4.5
		v-30.4C75.26,26.18,73.24,24.17,70.76,24.17z M72.26,59.07c0,0.83-0.67,1.5-1.5,1.5H16.08c-0.83,0-1.5-0.67-1.5-1.5v-30.4
		c0-0.83,0.67-1.5,1.5-1.5h54.68c0.83,0,1.5,0.67,1.5,1.5V59.07z"/>
	<path class="st0" d="M92.44,14.96H37.76c-2.48,0-4.5,2.02-4.5,4.5v1.71h3v-1.71c0-0.83,0.67-1.5,1.5-1.5h54.68
		c0.83,0,1.5,0.67,1.5,1.5v4.78c-0.05,0-0.1-0.01-0.15-0.01H76.79c0.92,1.25,1.47,2.78,1.47,4.45v1.72H93.8
		c0.05,0,0.1-0.01,0.15-0.01v19.49c0,0.83-0.67,1.5-1.5,1.5H78.26v3h14.18c2.48,0,4.5-2.02,4.5-4.5v-30.4
		C96.94,16.98,94.92,14.96,92.44,14.96z"/>
	<path class="st1" d="M55.58,61.57h-37c-3.87,0-7-3.13-7-7v-11c0-3.87,3.13-7,7-7h30c3.87,0,7,3.13,7,7V61.57z"/>
	<path class="st1" d="M92.42,52.57h-3.67c-1.75,0-3.17-1.42-3.17-3.17V38.73c0-1.75,1.42-3.17,3.17-3.17h3.67
		c1.75,0,3.17,1.42,3.17,3.17V49.4C95.58,51.15,94.16,52.57,92.42,52.57z"/>
</g>
</svg>
