<?xml version="1.0" encoding="utf-8"?>
<!-- Generator: Adobe Illustrator 23.0.0, SVG Export Plug-In . SVG Version: 6.00 Build 0)  -->
<svg version="1.1" id="Layer_1" xmlns="http://www.w3.org/2000/svg" xmlns:xlink="http://www.w3.org/1999/xlink" x="0px" y="0px"
	 viewBox="0 0 260 260" style="enable-background:new 0 0 260 260;" xml:space="preserve">
<style type="text/css">
	.st0{fill:#58BC73;}
</style>
<path class="st0" d="M242.82,194.77c-2.7-8.05-11.6-16.45-19.8-18.7l-30.27-8.27c-8.2-2.23-19.9,0.77-25.93,6.8l0,0
	c-7.15,7.15-17.97,9.27-27.23,5.21c-26.68-11.71-48.07-33.1-59.76-59.78c-4.06-9.26-1.94-20.07,5.21-27.22l0.01-0.01
	c6-6,9-17.7,6.77-25.93L83.57,36.6c-2.22-8.2-10.68-17.1-18.72-19.8l-3.45-1.15c-8.07-2.7-19.6,0.03-25.6,6.05L19.4,38.1
	c-2.92,2.9-4.8,11.22-4.8,11.25c-0.55,52.05,19.85,102.17,56.65,139c36.7,36.7,86.65,57.07,138.52,56.63
	c0.28,0,8.85-1.83,11.78-4.75l16.4-16.4c6-5.97,8.7-17.5,6.03-25.55L242.82,194.77z"/>
</svg>
