<?xml version="1.0" encoding="utf-8"?>
<!-- Generator: Adobe Illustrator 23.0.0, SVG Export Plug-In . SVG Version: 6.00 Build 0)  -->
<svg version="1.1" id="Calque_1" xmlns="http://www.w3.org/2000/svg" xmlns:xlink="http://www.w3.org/1999/xlink" x="0px" y="0px"
	 viewBox="0 0 512 512" style="enable-background:new 0 0 512 512;" xml:space="preserve">
<style type="text/css">
	.st0{fill:#55BE74;}
</style>
<g>
	<path class="st0" d="M0,29.4v453.3c15.1,0,30.2,0,45.2,0c9.7,0,19.4,0,29.1,0h111.5c7.4,0,14.8,0,22.3,0c17,0,34,0,50.9,0
		c0.4-185.8,0.7-267.5,1.1-453.3H0z M111.5,259.7H37.2v-74.3h74.3V259.7z M111.5,148.2H37.2V73.9h74.3V148.2z M37.2,371.2v-74.3
		h74.3v74.3H37.2z M222.9,371.2h-74.3v-74.3h74.3V371.2z M222.9,259.7h-74.3v-74.3h74.3V259.7z M222.9,148.2h-74.3V73.9h74.3V148.2z
		"/>
	<polygon class="st0" points="512,241.4 512,482.6 450.2,482.6 450.2,362 352.5,362 352.5,482.6 290.7,482.6 290.7,241.4 	"/>
	<rect x="290.7" y="185.7" class="st0" width="221.3" height="31.3"/>
</g>
</svg>
