<?xml version="1.0" encoding="utf-8"?>
<!-- Generator: Adobe Illustrator 23.0.0, SVG Export Plug-In . SVG Version: 6.00 Build 0)  -->
<svg version="1.1" id="Layer_4" xmlns="http://www.w3.org/2000/svg" xmlns:xlink="http://www.w3.org/1999/xlink" x="0px" y="0px"
	 viewBox="0 0 108.53 78.53" style="enable-background:new 0 0 108.53 78.53;" xml:space="preserve">
<style type="text/css">
	.st0{fill:#55BE74;}
	.st1{opacity:0.33;fill:#55BE74;}
</style>
<g>
	<path class="st0" d="M54.01,28.36l1.01-1.01v11.17c0,0.83,0.67,1.5,1.5,1.5c0.83,0,1.5-0.67,1.5-1.5V27.31l1.05,1.05
		c0.29,0.29,0.68,0.44,1.06,0.44c0.41,0,0.83-0.17,1.13-0.51c0.54-0.61,0.41-1.57-0.16-2.14l-3.48-3.48c-0.6-0.6-1.57-0.6-2.16,0
		l-3.48,3.48c-0.58,0.58-0.7,1.53-0.16,2.14c0.3,0.34,0.71,0.51,1.13,0.51C53.33,28.8,53.71,28.66,54.01,28.36z"/>
	<path class="st0" d="M47.62,34.69c-2.18,0-3.96-2.01-3.96-4.5c0-0.82-0.67-1.5-1.5-1.5h-21.2c-0.83,0-1.5,0.68-1.5,1.5
		c0,2.49-1.77,4.5-3.95,4.5c-0.83,0-1.5,0.68-1.5,1.5V51.5c0,10.57,16.2,18.67,16.89,19.01c0.21,0.1,0.43,0.15,0.66,0.15
		s0.45-0.05,0.66-0.15c0.4-0.2,5.96-2.97,10.6-7.32c3.4-3.19,6.3-7.21,6.3-11.69V36.19C49.12,35.37,48.44,34.69,47.62,34.69z
		 M46.12,51.5c0,3.91-3.03,7.57-6.39,10.44c-3.22,2.75-6.74,4.76-8.17,5.53c-2.93-1.58-14.55-8.32-14.55-15.97V37.52
		c2.67-0.64,4.76-2.93,5.31-5.83H40.8c0.55,2.9,2.65,5.19,5.32,5.83V51.5z"/>
	<path class="st0" d="M93.16,10.86L67.68,7.87c-0.05-0.01-0.1,0-0.15,0c-0.05-0.01-0.1-0.01-0.15-0.01l-35.48,3
		c-0.8,0.07-1.41,0.73-1.41,1.52v13.31h3V13.76c0-0.01,0.02-0.03,0.03-0.03l32.45-2.74c0.02,0,0.03,0.01,0.03,0.03V51.2
		c0,0.02-0.01,0.04-0.03,0.03l-13.85-1.17v1.44c0,0.53-0.05,1.05-0.11,1.57l15.37,1.29c0.04,0.01,0.08,0.01,0.12,0.01
		c0.06,0,0.12,0,0.18-0.01l25.48-3c0.77-0.09,1.35-0.74,1.35-1.52V12.38C94.51,11.61,93.93,10.95,93.16,10.86z M78.76,50.01
		c0,0.01-0.01,0.03-0.03,0.03l-9.69,1.14c-0.02,0-0.04-0.01-0.04-0.03V11.08c0-0.02,0.02-0.04,0.04-0.03l9.69,1.14
		c0.02,0,0.03,0.01,0.03,0.03V50.01z M91.51,48.51c0,0.01-0.01,0.03-0.02,0.03l-9.7,1.14c-0.01,0-0.03-0.01-0.03-0.03V12.58
		c0-0.02,0.02-0.04,0.03-0.03l9.7,1.14c0.01,0,0.02,0.01,0.02,0.03V48.51z"/>
	<path class="st0" d="M42.39,44.27L31.52,55.14c-0.29,0.29-0.67,0.44-1.06,0.44c-0.38,0-0.76-0.15-1.06-0.44l-6.18-6.19
		c-0.59-0.58-0.59-1.53,0-2.12c0.58-0.58,1.53-0.58,2.12,0l5.12,5.13l0.63-0.63l9.18-9.18c0.59-0.59,1.54-0.59,2.12,0
		C42.98,42.74,42.98,43.69,42.39,44.27z"/>
	<path class="st1" d="M34.35,60.42c-1,0.7-1.94,1.28-2.66,1.7c-0.61,0.36-1.36,0.36-1.97,0c-3.02-1.76-9.66-6.19-9.66-11.13v-8.87
		c0-0.73,0.39-1.41,1.04-1.74c1.1-0.55,1.98-1.51,2.48-2.7c0.31-0.72,1.02-1.18,1.8-1.18h2.25c1.12,0,2.02,0.94,1.98,2.06
		c-0.2,4.54-0.25,8.77,0.75,12.3l-0.46,0.46l-3.75-3.75c-0.43-0.42-1.13-0.42-1.55,0c-0.43,0.43-0.43,1.13,0,1.55l4.52,4.53
		c0.22,0.21,0.5,0.32,0.78,0.32c0.29,0,0.56-0.11,0.78-0.32l0.52-0.52c0.75,1.59,1.81,2.98,3.3,4.13
		C35.53,58.07,35.43,59.67,34.35,60.42z"/>
	<path class="st1" d="M25.34,46.83l5.12,5.13l0.63-0.63c0.3,1.08,0.68,2.12,1.14,3.1l-0.71,0.71c-0.29,0.29-0.67,0.44-1.06,0.44
		c-0.38,0-0.76-0.15-1.06-0.44l-6.18-6.19c-0.59-0.58-0.59-1.53,0-2.12C23.8,46.25,24.75,46.25,25.34,46.83z"/>
	<path class="st1" d="M89.92,51.07l-5.64,0.26c-2.38,0.11-4.39-1.73-4.5-4.11l-0.52-11.37c-0.11-2.38,1.73-4.39,4.11-4.5l5.64-0.26
		c2.38-0.11,4.39,1.73,4.5,4.11l0.52,11.37C94.14,48.95,92.3,50.97,89.92,51.07z"/>
	<path class="st1" d="M53.76,26.72l-18.33,0.83c-2.38,0.11-4.39-1.73-4.5-4.11l-0.3-6.6c-0.11-2.38,1.73-4.39,4.11-4.5l18.33-0.83
		c2.38-0.11,4.39,1.73,4.5,4.11l0.3,6.6C57.98,24.59,56.14,26.61,53.76,26.72z"/>
</g>
</svg>
