<?xml version="1.0" encoding="utf-8"?>
<!-- Generator: Adobe Illustrator 23.0.0, SVG Export Plug-In . SVG Version: 6.00 Build 0)  -->
<svg version="1.1" id="Capa_1" xmlns="http://www.w3.org/2000/svg" xmlns:xlink="http://www.w3.org/1999/xlink" x="0px" y="0px"
	 viewBox="0 0 442.8 442.8" style="enable-background:new 0 0 442.8 442.8;" xml:space="preserve">
<style type="text/css">
	.st0{fill:#FFFFFF;}
</style>
<g>
	<g>
		<path class="st0" d="M0,100l0,170c0,44.5,35.7,80.8,80,81.8v62c0,4.4,2.7,8.4,6.7,10.1c1.3,0.6,2.8,0.8,4.2,0.8
			c2.8,0,5.6-1.1,7.7-3.2l69.7-69.7h192.8c45.1,0,81.8-36.7,81.8-81.8V100c0-45.1-36.7-81.8-81.8-81.8H81.8C36.7,18.2,0,54.9,0,100z
			 M21.8,270V100c0-33.1,26.9-60,60-60h279.3c33.1,0,60,26.9,60,60v170c0,33.1-26.9,60-60,60H163.7c-2.9,0-5.7,1.1-7.7,3.2
			l-54.3,54.3v-46.6c0-6-4.9-10.9-10.9-10.9h-9.1C48.7,330,21.8,303.1,21.8,270L21.8,270z"/>
		<path class="st0" d="M299.1,185.8c0,13.6,11,24.5,24.5,24.5c13.5,0,24.5-11,24.5-24.5c0-13.5-11-24.5-24.5-24.5
			C310.1,161.2,299.1,172.2,299.1,185.8z"/>
		<path class="st0" d="M196.9,185.8c0,13.6,11,24.5,24.5,24.5c13.5,0,24.5-11,24.5-24.5c0-13.5-11-24.5-24.5-24.5
			C207.9,161.2,196.9,172.2,196.9,185.8z"/>
		<path class="st0" d="M94.7,185.8c0,13.6,11,24.5,24.5,24.5c13.5,0,24.5-11,24.5-24.5c0-13.5-11-24.5-24.5-24.5
			C105.7,161.2,94.7,172.2,94.7,185.8z"/>
	</g>
</g>
</svg>
