<?xml version="1.0" encoding="utf-8"?>
<!-- Generator: Adobe Illustrator 23.0.0, SVG Export Plug-In . SVG Version: 6.00 Build 0)  -->
<svg version="1.1" id="Layer_9" xmlns="http://www.w3.org/2000/svg" xmlns:xlink="http://www.w3.org/1999/xlink" x="0px" y="0px"
	 viewBox="0 0 108.53 78.53" style="enable-background:new 0 0 108.53 78.53;" xml:space="preserve">
<style type="text/css">
	.st0{fill:#55BE74;}
	.st1{opacity:0.33;fill:#55BE74;}
</style>
<g>
	<path class="st0" d="M54.26,25.39c-0.94,0-1.7,0.76-1.7,1.7v20.08c0,0.94,0.76,1.7,1.7,1.7c0.94,0,1.7-0.76,1.7-1.7V27.1
		C55.97,26.16,55.2,25.39,54.26,25.39z"/>
	<path class="st0" d="M33.28,36.97c-0.29-0.9-1.25-1.39-2.15-1.1c-0.9,0.29-1.39,1.25-1.1,2.15l3.16,9.76
		c0.23,0.72,0.9,1.18,1.62,1.18c0.17,0,0.35-0.03,0.53-0.08c0.9-0.29,1.39-1.25,1.1-2.15L33.28,36.97z"/>
	<path class="st0" d="M72.09,46.72c-0.29,0.9,0.2,1.86,1.1,2.15c0.17,0.06,0.35,0.08,0.53,0.08c0.72,0,1.39-0.46,1.62-1.18
		l3.16-9.76c0.29-0.9-0.2-1.86-1.1-2.15c-0.9-0.29-1.86,0.2-2.15,1.1L72.09,46.72z"/>
	<path class="st0" d="M93.03,16.16c-0.98-0.65-2.24-0.64-3.21,0.04L73.91,27.34L56.26,9.82c-1.1-1.09-2.9-1.09-4,0L34.61,27.34
		L18.7,16.2c-0.97-0.68-2.22-0.69-3.2-0.04c-0.98,0.65-1.45,1.82-1.2,2.97l7.95,36.26c0,0.07,0.01,0.13,0.02,0.2l0.34,9.01
		c0.1,2.76,2.35,4.92,5.11,4.92h53.09c2.76,0,5.01-2.16,5.11-4.92l0.33-8.94c0.01-0.06,0.02-0.12,0.02-0.19l7.96-36.34
		C94.48,17.98,94.01,16.81,93.03,16.16z M82.51,64.47c-0.03,0.92-0.78,1.64-1.7,1.64H27.72c-0.92,0-1.67-0.72-1.7-1.64L25.73,57
		h57.06L82.51,64.47z M83.19,53.59H25.34l-7.39-33.77l15.11,10.59c1.13,0.79,2.65,0.66,3.63-0.31l17.59-17.46L71.85,30.1
		c0.97,0.97,2.5,1.1,3.63,0.31l15.1-10.58L83.19,53.59z"/>
	<path class="st1" d="M80.38,63.76H45.21c-2.16,0-3.92-1.75-3.92-3.92v-1.17c0-2.16,1.75-3.92,3.92-3.92h35.17
		c2.16,0,3.92,1.75,3.92,3.92v1.17C84.29,62,82.54,63.76,80.38,63.76z"/>
	<path class="st1" d="M22.26,52.4L16.2,25.47c-0.47-2.11,0.85-4.21,2.96-4.68l1.14-0.26c2.11-0.47,4.21,0.85,4.68,2.96l6.06,26.93
		c0.47,2.11-0.85,4.21-2.96,4.68l-1.14,0.26C24.83,55.84,22.74,54.51,22.26,52.4z"/>
</g>
</svg>
