<?xml version="1.0" encoding="utf-8"?>
<!-- Generator: Adobe Illustrator 22.1.0, SVG Export Plug-In . SVG Version: 6.00 Build 0)  -->
<svg version="1.1" id="Layer_2" xmlns="http://www.w3.org/2000/svg" xmlns:xlink="http://www.w3.org/1999/xlink" x="0px" y="0px"
	 viewBox="0 0 100 100" style="enable-background:new 0 0 100 100;" xml:space="preserve">
<style type="text/css">
	.st0{fill:#FFFFFF;}
	.st1{fill:#54BE73;}
	.st2{fill:#1F222B;}
</style>
<g>
	<path class="st0" d="M70,24.2c0,5.6-1.9,10.2-5.9,14.1c-3.9,3.9-8.6,5.9-14.1,5.9c-5.6,0-10.2-1.9-14.1-5.9S30,29.8,30,24.2
		c0-5.6,1.9-10.2,5.9-14.1S44.4,4.2,50,4.2c5.6,0,10.2,1.9,14.1,5.9C68.1,14,70,18.6,70,24.2z"/>
	<path class="st1" d="M85.7,82.6c0,3.6-1,6.3-3.1,8.3c-2.1,2-4.9,3-8.6,3H26c-3.7,0-6.5-1-8.6-3c-2.1-2-3.1-4.7-3.1-8.3
		c0-1.9,0.1-3.7,0.2-5.5c0.1-1.7,0.4-3.6,0.7-5.7c0.4-2,0.8-3.9,1.4-5.6c0.5-1.6,1.2-3.2,2.1-4.8c0.8-1.5,1.8-2.7,2.9-3.8
		c1-1,2.3-1.8,3.7-2.3c1.4-0.5,2.9-0.8,4.6-0.9c0.2,0.1,0.6,0.3,1.2,0.7c1.2,0.8,2.6,1.7,4.1,2.7c1.7,1.1,3.9,2.1,6.6,2.9
		c2.7,0.9,5.5,1.3,8.2,1.3c2.7,0,5.5-0.4,8.2-1.3c2.7-0.9,4.9-1.8,6.6-2.9c1.6-1,2.9-1.9,4.1-2.7c0.6-0.4,1-0.6,1.2-0.7
		c1.7,0,3.2,0.3,4.6,0.9c1.5,0.6,2.7,1.4,3.7,2.3c1.1,1,2,2.3,2.9,3.8c0.9,1.6,1.6,3.2,2.1,4.8c0.5,1.7,1,3.6,1.4,5.6
		c0.4,2,0.6,3.9,0.7,5.7C85.6,78.9,85.7,80.8,85.7,82.6z"/>
	<g>
		<path class="st2" d="M66.3,7.3c-4.7-4.7-10.4-7-16.9-7c-6.6,0-12.3,2.4-16.9,7c-4.7,4.7-7,10.4-7,16.9c0,6.6,2.4,12.3,7,16.9
			c4.7,4.7,10.4,7,16.9,7c6.6,0,12.3-2.4,16.9-7c4.7-4.7,7-10.4,7-16.9C73.3,17.6,71,11.9,66.3,7.3z M62.2,37
			c-3.6,3.6-7.8,5.3-12.8,5.3c-5.1,0-9.3-1.7-12.8-5.3c-3.6-3.6-5.3-7.8-5.3-12.8c0-5,1.7-9.2,5.3-12.8c3.6-3.6,7.8-5.3,12.8-5.3
			c5,0,9.2,1.7,12.8,5.3s5.3,7.8,5.3,12.8C67.5,29.3,65.8,33.5,62.2,37z"/>
		<path class="st2" d="M91.3,76.8c-0.1-1.9-0.4-4.1-0.8-6.3c-0.4-2.2-0.9-4.4-1.5-6.3c-0.6-2-1.5-4-2.6-5.9c-1.1-2-2.4-3.7-3.9-5.1
			c-1.6-1.5-3.4-2.7-5.6-3.5c-2.2-0.9-4.6-1.3-7.2-1.3c-1,0-2,0.4-3.9,1.7c-1.2,0.8-2.5,1.6-4,2.6c-1.3,0.8-3.1,1.6-5.3,2.3
			c-2.1,0.7-4.3,1-6.4,1s-4.3-0.4-6.4-1c-2.2-0.7-4-1.5-5.3-2.3c-1.5-1-2.9-1.8-4.1-2.6c-1.9-1.2-2.9-1.7-3.9-1.7
			c-2.6,0-5,0.4-7.2,1.3c-2.2,0.9-4.1,2.1-5.6,3.5c-1.5,1.4-2.8,3.1-3.9,5.1c-1.1,1.9-2,3.9-2.6,5.9c-0.6,1.9-1.1,4.1-1.5,6.3
			c-0.4,2.2-0.7,4.3-0.8,6.3c-0.1,1.9-0.2,3.9-0.2,5.9c0,5.2,1.6,9.4,4.9,12.5c3.2,3.1,7.5,4.6,12.6,4.6h47.9
			c5.2,0,9.4-1.6,12.6-4.6c3.3-3.1,4.9-7.3,4.9-12.5C91.5,80.6,91.4,78.6,91.3,76.8z M82.6,90.9c-2.1,2-4.9,3-8.6,3H26
			c-3.7,0-6.5-1-8.6-3c-2.1-2-3.1-4.7-3.1-8.3c0-1.9,0.1-3.7,0.2-5.5c0.1-1.7,0.4-3.6,0.7-5.7c0.4-2,0.8-3.9,1.4-5.6
			c0.5-1.6,1.2-3.2,2.1-4.8c0.8-1.5,1.8-2.7,2.9-3.8c1-1,2.3-1.8,3.7-2.3c1.4-0.5,2.9-0.8,4.6-0.9c0.2,0.1,0.6,0.3,1.2,0.7
			c1.2,0.8,2.6,1.7,4.1,2.7c1.7,1.1,3.9,2.1,6.6,2.9c2.7,0.9,5.5,1.3,8.2,1.3c2.7,0,5.5-0.4,8.2-1.3c2.7-0.9,4.9-1.8,6.6-2.9
			c1.6-1,2.9-1.9,4.1-2.7c0.6-0.4,1-0.6,1.2-0.7c1.7,0,3.2,0.3,4.6,0.9c1.5,0.6,2.7,1.4,3.7,2.3c1.1,1,2,2.3,2.9,3.8
			c0.9,1.6,1.6,3.2,2.1,4.8c0.5,1.7,1,3.6,1.4,5.6c0.4,2,0.6,3.9,0.7,5.7c0.1,1.8,0.2,3.6,0.2,5.5C85.7,86.2,84.7,88.9,82.6,90.9z"
			/>
	</g>
</g>
</svg>
