<?xml version="1.0" encoding="utf-8"?>
<!-- Generator: Adobe Illustrator 23.0.0, SVG Export Plug-In . SVG Version: 6.00 Build 0)  -->
<svg version="1.1" xmlns="http://www.w3.org/2000/svg" xmlns:xlink="http://www.w3.org/1999/xlink" x="0px" y="0px"
	 viewBox="0 0 400 400" style="enable-background:new 0 0 400 400;" xml:space="preserve">
<style type="text/css">
	.st0{fill:#C7E9D1;}
	.st1{fill:#54BE73;}
</style>
<g id="Layer_4">
</g>
<g id="Layer_3">
	<g>
		<path class="st0" d="M234.77,130.89c-3.56,5.49-9.74,9.11-16.77,9.11s-13.21-3.62-16.77-9.11c-2.04-3.13-3.23-6.87-3.23-10.89
			c0-11.05,8.95-20,20-20c0.55,0,1.1,0.02,1.64,0.07c6.16,0.5,11.53,3.78,14.83,8.6c0.02,0.46,0.03,0.93,0.03,1.4
			c0,5.72-1.49,11.37-4.3,16.34l-2.53,4.48H234.77z"/>
		<path class="st0" d="M123,182c-5,41-28,108,92,118s-117,7-117,7l-11-12l26-103l11-15L123,182z"/>
		<path class="st1" d="M280.12,143.4l-0.03-0.28c-0.64-6.86-6.55-12.23-13.44-12.23h-38.98l2.53-4.48c2.81-4.97,4.3-10.62,4.3-16.34
			c0-0.47-0.01-0.94-0.03-1.4c-0.74-17.74-15.4-31.94-33.31-31.94c-18.39,0-33.34,14.95-33.34,33.34c0,5.71,1.49,11.37,4.3,16.34
			l2.53,4.48h-40.4c-6.91,0-12.81,5.38-13.44,12.26l-0.02,0.27L78.64,292.65v0.85c0,7.44,6.06,13.5,13.5,13.5h217.72
			c7.44,0,13.5-6.06,13.5-13.5v-0.87L280.12,143.4z M201.16,89.06c7.97,0,14.91,4.46,18.48,11.01c1.61,2.98,2.53,6.39,2.53,10
			c0,10.37-7.74,19.31-18,20.79l-0.21,0.03h-5.6l-0.21-0.03c-10.26-1.48-18-10.42-18-20.79C180.15,98.48,189.57,89.06,201.16,89.06z
			 M90.89,294.67l32.82-116.21l9.95-35.24h63.94l0.15,0.02c1.13,0.11,2.28,0.17,3.41,0.17c1.14,0,2.28-0.06,3.41-0.17l0.15-0.02
			h62.5l43.89,151.45H90.89z"/>
		<path class="st1" d="M192.96,255.97c-1.28,0-1.84-0.67-2.15-1.18l-21.99-33.34l-8.87,11.17v21.54c0,0.38-1.47,1.29-3.8,1.29
			c-2.32,0-3.8-0.85-3.8-1.29v-67.97c0-0.48,1.48-1.18,3.8-1.18c2.36,0,3.8,0.77,3.8,1.18v37.7l28-38.12
			c0.47-0.66,0.79-0.76,1.35-0.76c1.95,0,4.84,2.4,4.84,4.01c0,0.44-0.06,0.59-0.2,0.77l-20.05,25.09l24.06,36.63
			c0.04,0.06,0.17,0.24,0.17,0.66C198.12,253.56,195.57,255.97,192.96,255.97z"/>
		<path class="st1" d="M229.24,256.07c-14.25,0-21.47-7.05-21.47-20.95v-29.17c0-17.31,11.45-20.95,21.05-20.95
			c13.36,0,21.99,6.7,21.99,17.08c0,3.09-0.43,3.48-3.8,3.48c-1.71,0-3.76-0.24-3.8-1.38c-0.56-8.83-5.23-13.26-13.87-13.26
			c-4.4,0-7.87,1.31-10.3,3.9c-2.44,2.59-3.68,6.34-3.68,11.13v29.17c0,9.55,5.06,15.03,13.88,15.03c8.75,0,13.98-5.62,13.98-15.03
			v-9.17h-11.47c-0.82,0-1.18-1.37-1.18-2.33c0-0.95,0.42-2.33,1.18-2.33h17.78c1.12,0,1.29,0.87,1.29,1.39v12.44
			C250.82,249.03,243.56,256.07,229.24,256.07z"/>
	</g>
</g>
</svg>
